<svg width="636" height="438" viewBox="0 0 636 438" fill="none" xmlns="http://www.w3.org/2000/svg">
<path d="M451.382 320.129H471.992C480.406 320.129 487.231 340.216 487.231 364.888C487.231 389.559 480.445 409.665 471.992 409.665H451.382C442.967 409.665 436.142 389.579 436.142 364.897C436.142 340.216 442.967 320.129 451.382 320.129Z" fill="white"/>
<path d="M451.382 411.866H471.972C483.324 411.866 489.422 387.63 489.422 364.887C489.422 342.145 483.314 317.929 471.972 317.929H451.362C440.03 317.929 433.913 342.164 433.913 364.897C433.913 387.63 440.049 411.866 451.382 411.866ZM471.963 322.34C478.138 322.34 485.021 340.536 485.021 364.887C485.021 389.239 478.138 407.455 471.992 407.455H451.411C445.236 407.455 438.353 389.259 438.353 364.897C438.353 340.536 445.236 322.34 451.382 322.34H471.963Z" fill="black" fill-opacity="0.02"/>
<path d="M291.263 386.826V86.7998L703.712 139.895V368.494L291.263 386.826Z" fill="white"/>
<path d="M291.263 389.026H291.36L703.809 370.695C704.377 370.672 704.913 370.43 705.306 370.019C705.698 369.609 705.916 369.062 705.913 368.494V139.895C705.912 139.357 705.714 138.839 705.357 138.437C705 138.035 704.508 137.778 703.974 137.714L291.573 84.6185C291.262 84.5787 290.947 84.6053 290.647 84.6966C290.348 84.7878 290.071 84.9416 289.836 85.1479C289.6 85.3541 289.411 85.608 289.281 85.8928C289.151 86.1775 289.083 86.4867 289.081 86.7997V386.816C289.083 387.113 289.144 387.406 289.26 387.679C289.377 387.952 289.547 388.199 289.76 388.406C290.163 388.797 290.701 389.019 291.263 389.026ZM701.502 366.381L293.463 384.519V89.3105L701.502 141.834V366.381Z" fill="black" fill-opacity="0.02"/>
<path d="M344.464 309.669L331.581 321.7L335.09 402.986C335.141 404.09 334.968 405.193 334.582 406.228C334.196 407.263 333.604 408.21 332.842 409.01C332.08 409.811 331.165 410.449 330.15 410.886C329.135 411.324 328.042 411.551 326.937 411.556H254.231V309.912L344.464 309.669Z" fill="white"/>
<path d="M254.231 413.756H326.937C328.339 413.753 329.725 413.465 331.013 412.912C332.3 412.358 333.463 411.55 334.43 410.536C335.397 409.522 336.149 408.322 336.641 407.01C337.132 405.697 337.354 404.299 337.291 402.899L333.83 322.621L345.967 311.279C346.289 310.976 346.512 310.584 346.609 310.153C346.705 309.722 346.671 309.272 346.509 308.861C346.347 308.449 346.066 308.096 345.701 307.847C345.337 307.597 344.906 307.462 344.464 307.459L254.24 307.712C253.657 307.712 253.097 307.943 252.684 308.356C252.272 308.769 252.04 309.328 252.04 309.912V411.556C252.04 412.138 252.27 412.696 252.681 413.108C253.092 413.521 253.649 413.754 254.231 413.756ZM338.861 311.89L330.078 320.091C329.847 320.309 329.665 320.574 329.545 320.869C329.424 321.163 329.368 321.479 329.38 321.797L332.88 403.083C332.918 403.889 332.792 404.694 332.511 405.449C332.23 406.205 331.799 406.897 331.244 407.482C330.689 408.067 330.021 408.533 329.281 408.854C328.541 409.174 327.744 409.341 326.937 409.346H256.441V312.113L338.861 311.89Z" fill="black" fill-opacity="0.02"/>
<path d="M118.434 2.21777H358.918V312.326H118.434V2.21777Z" fill="white"/>
<path d="M118.434 314.536H358.918C359.503 314.533 360.063 314.299 360.475 313.885C360.887 313.471 361.119 312.91 361.119 312.326V2.21767C361.119 1.63404 360.887 1.07432 360.474 0.661626C360.062 0.248937 359.502 0.0170898 358.918 0.0170898H118.434C117.85 0.0170842 117.289 0.248621 116.875 0.661035C116.461 1.07345 116.227 1.63315 116.224 2.21767V312.326C116.224 312.912 116.457 313.474 116.871 313.889C117.286 314.303 117.848 314.536 118.434 314.536ZM356.708 310.125H120.635V4.42795H356.708V310.125Z" fill="black" fill-opacity="0.02"/>
<path d="M118.434 314.536H156.823C157.125 314.556 157.428 314.514 157.713 314.412C157.998 314.31 158.259 314.151 158.48 313.944C158.701 313.738 158.877 313.488 158.997 313.21C159.118 312.932 159.18 312.633 159.18 312.331C159.18 312.028 159.118 311.729 158.997 311.451C158.877 311.173 158.701 310.924 158.48 310.717C158.259 310.51 157.998 310.351 157.713 310.249C157.428 310.147 157.125 310.105 156.823 310.125H120.586V4.42795H356.708V312.326C356.688 312.628 356.73 312.93 356.832 313.215C356.934 313.5 357.093 313.761 357.3 313.982C357.507 314.203 357.756 314.379 358.034 314.5C358.312 314.62 358.611 314.682 358.914 314.682C359.216 314.682 359.516 314.62 359.793 314.5C360.071 314.379 360.321 314.203 360.527 313.982C360.734 313.761 360.893 313.5 360.995 313.215C361.097 312.93 361.139 312.628 361.119 312.326V2.21768C361.119 1.63404 360.887 1.07432 360.475 0.661626C360.062 0.248937 359.502 0.0170898 358.918 0.0170898H118.434C117.85 0.0170842 117.289 0.248621 116.875 0.661035C116.461 1.07345 116.227 1.63315 116.224 2.21768V312.326C116.224 312.912 116.457 313.474 116.871 313.889C117.286 314.303 117.848 314.536 118.434 314.536Z" fill="black" fill-opacity="0.02"/>
<path d="M270.439 339.053H294.248C303.943 339.053 311.853 362.232 311.853 390.742C311.853 419.253 303.972 442.441 294.248 442.441H270.439C260.745 442.441 252.835 419.263 252.835 390.752C252.835 362.241 260.716 339.053 270.439 339.053Z" fill="black" fill-opacity="0.02"/>
<path d="M294.248 441.617C284.526 441.617 276.644 418.506 276.644 389.996C276.644 361.486 284.526 338.374 294.248 338.374C303.971 338.374 311.853 361.486 311.853 389.996C311.853 418.506 303.971 441.617 294.248 441.617Z" fill="white"/>
<path d="M294.239 443.827C307.113 443.827 314.054 416.092 314.054 389.996C314.054 363.899 307.113 336.164 294.239 336.164C281.365 336.164 274.433 363.899 274.433 389.996C274.433 416.092 281.374 443.827 294.239 443.827ZM294.239 340.574C301.529 340.574 309.652 360.864 309.652 390.015C309.652 419.165 301.529 439.455 294.239 439.455C286.949 439.455 278.844 419.156 278.844 390.015C278.844 360.874 286.958 340.574 294.239 340.574Z" fill="black" fill-opacity="0.02"/>
<path d="M344.978 95.3984L345.676 310.881L337.562 317.725C336.09 318.968 334.923 320.532 334.15 322.297C333.377 324.061 333.019 325.98 333.103 327.904L336.447 405.526C336.481 406.306 336.358 407.084 336.084 407.816C335.811 408.547 335.393 409.215 334.855 409.782C334.318 410.348 333.672 410.8 332.956 411.112C332.241 411.423 331.469 411.587 330.689 411.594C328.197 411.594 325.842 411.594 325.842 411.497C325.842 363.026 316.739 323.28 304.96 323.28C293.182 323.28 283.633 362.58 283.633 411.052C283.633 411.216 255.442 411.556 255.442 411.556V96.3194L344.978 95.3984Z" fill="white"/>
<path d="M329.215 413.795H330.689C331.763 413.799 332.827 413.583 333.814 413.16C334.801 412.736 335.691 412.114 336.428 411.333C337.181 410.552 337.767 409.626 338.148 408.61C338.53 407.595 338.7 406.512 338.648 405.429L335.303 327.807C335.24 326.219 335.539 324.637 336.177 323.181C336.816 321.725 337.776 320.433 338.987 319.402L347.101 312.616C347.349 312.409 347.548 312.149 347.684 311.856C347.82 311.563 347.889 311.243 347.886 310.92L347.188 95.4468C347.181 94.8576 346.945 94.2944 346.529 93.8764C346.322 93.6733 346.076 93.5132 345.807 93.4051C345.537 93.2969 345.249 93.243 344.959 93.2462L255.462 94.1575C254.88 94.1626 254.324 94.3981 253.915 94.8123C253.506 95.2265 253.278 95.7858 253.281 96.3678V411.556C253.286 412.143 253.523 412.704 253.941 413.116C254.359 413.529 254.923 413.759 255.51 413.756C255.51 413.756 262.568 413.679 269.615 413.572C285.882 413.33 285.882 413.33 285.882 411.051C285.882 360.642 295.964 325.49 305.009 325.49C313.84 325.49 323.69 360.806 323.69 411.497C323.689 412.082 323.919 412.642 324.33 413.058C325.008 413.727 325.066 413.795 329.215 413.795ZM343.476 309.863L336.166 316.048C334.44 317.512 333.071 319.351 332.162 321.424C331.253 323.497 330.829 325.749 330.922 328.011L334.227 405.613C334.254 406.101 334.182 406.59 334.015 407.05C333.849 407.509 333.591 407.931 333.258 408.289C332.927 408.636 332.528 408.913 332.086 409.101C331.645 409.29 331.169 409.386 330.689 409.384H328.101C327.848 365.159 319.938 321.089 305.019 321.089C290.099 321.089 281.753 365.964 281.491 408.957C277.099 409.074 266.193 409.229 257.701 409.326V98.5005L342.797 97.628L343.476 309.863Z" fill="black" fill-opacity="0.02"/>
<path d="M255.481 413.756C255.481 413.756 262.539 413.679 269.586 413.572C285.853 413.33 285.853 413.33 285.853 411.052C285.853 372.129 292.067 337.928 300.966 327.866C301.352 327.427 301.548 326.854 301.511 326.271C301.473 325.688 301.206 325.144 300.768 324.759C300.329 324.373 299.756 324.177 299.173 324.214C298.59 324.252 298.046 324.519 297.661 324.957C288.131 335.728 281.675 369.328 281.452 408.958C276.663 409.084 264.138 409.258 255.433 409.355C254.873 409.392 254.348 409.641 253.965 410.05C253.582 410.46 253.369 411 253.369 411.56C253.369 412.121 253.582 412.661 253.965 413.071C254.348 413.48 254.873 413.729 255.433 413.766L255.481 413.756Z" fill="black" fill-opacity="0.02"/>
<path d="M76.2741 336.522H100.073C109.768 336.522 117.688 359.711 117.688 388.222C117.688 416.732 109.797 439.921 100.073 439.921H76.2741C66.5798 439.921 58.6694 416.742 58.6694 388.222C58.6694 359.701 66.5508 336.522 76.2741 336.522Z" fill="black" fill-opacity="0.02"/>
<path d="M100.219 439.921C90.4156 439.921 82.4686 416.622 82.4686 387.882C82.4686 359.142 90.4156 335.844 100.219 335.844C110.022 335.844 117.969 359.142 117.969 387.882C117.969 416.622 110.022 439.921 100.219 439.921Z" fill="white"/>
<path d="M100.219 442.131C113.18 442.131 120.169 414.183 120.169 387.844C120.169 361.505 113.18 333.556 100.219 333.556C87.2576 333.556 80.239 361.611 80.239 387.883C80.239 414.154 87.2576 442.131 100.219 442.131ZM100.219 338.054C107.567 338.054 115.729 358.519 115.729 387.883C115.729 417.246 107.538 437.72 100.219 437.72C92.8996 437.72 84.708 417.256 84.708 387.883C84.708 358.509 92.8414 338.054 100.219 338.054Z" fill="black" fill-opacity="0.02"/>
<path d="M55.0341 95.728H253.94V411.565H38.2049C35.1059 411.55 32.1398 410.305 29.9584 408.103C27.7771 405.902 26.559 402.925 26.5719 399.826V298.599C26.5718 270.475 29.0437 242.406 33.9589 214.715L55.0341 95.728Z" fill="white"/>
<path d="M38.2049 413.766H253.94C254.523 413.766 255.083 413.534 255.496 413.122C255.909 412.709 256.14 412.149 256.14 411.566V95.7284C256.14 95.1438 255.909 94.5831 255.496 94.1689C255.084 93.7546 254.524 93.5206 253.94 93.5181H55.034C54.5159 93.5191 54.0145 93.7022 53.6176 94.0353C53.2207 94.3685 52.9534 94.8304 52.8625 95.3406L31.7679 214.259C26.8306 242.101 24.3459 270.323 24.3422 298.599V399.826C24.337 403.511 25.7934 407.048 28.3921 409.662C30.9907 412.275 34.5196 413.751 38.2049 413.766ZM251.729 409.355H38.2049C35.6894 409.34 33.2825 408.329 31.511 406.543C29.7395 404.757 28.7479 402.342 28.753 399.826V298.599C28.7626 270.605 31.2246 242.667 36.1109 215.103L56.905 97.9289H251.759L251.729 409.355Z" fill="black" fill-opacity="0.02"/>
<path d="M287.327 237.389L276.867 239.192C276.052 239.329 275.217 239.287 274.42 239.067C273.623 238.848 272.883 238.458 272.253 237.923C271.622 237.389 271.116 236.723 270.77 235.973C270.423 235.223 270.244 234.406 270.246 233.579V168.144C270.24 166.008 271.083 163.957 272.587 162.441C274.092 160.926 276.137 160.069 278.272 160.059H292.814C293.7 160.061 294.578 160.239 295.396 160.582C296.214 160.925 296.956 161.426 297.579 162.057C298.203 162.687 298.695 163.435 299.029 164.257C299.362 165.078 299.53 165.958 299.522 166.845V222.867C299.522 226.336 298.299 229.693 296.069 232.349C293.838 235.005 290.743 236.79 287.327 237.389Z" fill="white"/>
<path d="M275.907 241.48C276.352 241.48 276.796 241.441 277.235 241.364L287.695 239.561C291.635 238.882 295.206 236.828 297.774 233.765C300.343 230.701 301.742 226.826 301.723 222.828V166.806C301.725 164.438 300.789 162.167 299.118 160.489C297.448 158.812 295.181 157.866 292.814 157.858H278.272C275.553 157.868 272.949 158.957 271.031 160.885C269.114 162.814 268.04 165.424 268.045 168.143V233.579C268.042 235.669 268.869 237.674 270.342 239.155C271.816 240.636 273.817 241.472 275.907 241.48ZM292.814 162.269C293.407 162.271 293.994 162.391 294.541 162.62C295.088 162.849 295.585 163.184 296.002 163.606C296.42 164.027 296.751 164.526 296.975 165.075C297.2 165.624 297.314 166.212 297.312 166.806V222.828C297.328 225.785 296.296 228.652 294.399 230.921C292.501 233.189 289.862 234.711 286.949 235.218L276.489 237.021C275.99 237.103 275.481 237.075 274.994 236.939C274.508 236.804 274.057 236.564 273.673 236.236C273.289 235.908 272.982 235.501 272.771 235.042C272.561 234.583 272.453 234.084 272.456 233.579V168.143C272.448 167.375 272.593 166.612 272.882 165.9C273.171 165.187 273.598 164.539 274.139 163.993C274.68 163.447 275.323 163.013 276.033 162.717C276.742 162.421 277.504 162.269 278.272 162.269H292.814Z" fill="black" fill-opacity="0.02"/>
<path d="M358.918 312.326V2.21777L723.673 46.2392V312.655L358.918 312.326Z" fill="white"/>
<path d="M82.0519 95.1172H344.271L332.511 39.8602C330.272 29.3614 320.442 21.8096 309.022 21.8096H111.396C102.468 21.8096 94.8192 27.8103 93.2584 36.0504L82.0519 95.1172Z" fill="white"/>
<path d="M93.2583 36.0505C94.8191 27.8104 102.468 21.8097 111.396 21.8097H309.022C314.192 21.793 319.238 23.3891 323.457 26.3757L237.731 95.1173H82.0518L93.2583 36.0505Z" fill="white"/>
<path d="M251.953 85.9173C252.454 85.9194 252.94 85.7481 253.329 85.4326L313.346 37.3105C313.765 36.9326 314.023 36.4088 314.069 35.8464C314.114 35.2839 313.942 34.7255 313.589 34.2856C313.236 33.8456 312.728 33.5573 312.169 33.4799C311.61 33.4025 311.043 33.5417 310.583 33.8691L250.566 81.9911C250.23 82.283 249.991 82.6694 249.878 83.0998C249.765 83.5302 249.785 83.9846 249.935 84.4035C250.085 84.8224 250.357 85.1864 250.717 85.4479C251.077 85.7093 251.508 85.856 251.953 85.8688V85.9173Z" fill="black" fill-opacity="0.02"/>
<path d="M82.0518 97.3177H344.27C344.599 97.318 344.923 97.2451 345.22 97.1042C345.517 96.9633 345.779 96.7581 345.986 96.5033C346.193 96.2468 346.34 95.9477 346.417 95.6276C346.494 95.3074 346.499 94.9742 346.432 94.6518L334.663 39.3948C332.288 28.1301 321.741 19.9676 309.08 19.6089H111.396C101.392 19.6089 92.8608 26.3948 91.0965 35.6528L79.8803 94.7099C79.8184 95.0292 79.8279 95.3583 79.9084 95.6734C79.9889 95.9885 80.1382 96.2819 80.3456 96.5324C80.5558 96.7795 80.8173 96.9778 81.112 97.1135C81.4067 97.2491 81.7274 97.3188 82.0518 97.3177ZM341.546 92.9068H84.708L95.4298 36.4574C96.7967 29.2449 103.515 24.0101 111.396 24.0101H309.022C319.57 24.3106 328.411 31.019 330.35 40.3254L341.546 92.9068Z" fill="black" fill-opacity="0.02"/>
<path d="M225.856 153.98H70.9617C67.4067 153.989 63.9687 155.252 61.2535 157.546C58.5384 159.841 56.7204 163.021 56.1199 166.525L42.9455 242.062C42.6418 243.767 42.7142 245.517 43.1578 247.191C43.6013 248.865 44.4053 250.421 45.5134 251.752C46.6214 253.083 48.0068 254.155 49.5727 254.894C51.1385 255.633 52.847 256.021 54.5785 256.031H229.074C230.634 256.026 232.177 255.714 233.616 255.113C235.055 254.511 236.361 253.632 237.46 252.526C238.559 251.419 239.43 250.107 240.022 248.665C240.614 247.222 240.916 245.677 240.911 244.117V169.152C240.924 165.144 239.345 161.296 236.523 158.451C233.7 155.606 229.863 153.998 225.856 153.98Z" fill="white"/>
<path d="M54.5978 258.232H229.094C232.821 258.211 236.388 256.714 239.014 254.069C241.639 251.423 243.109 247.845 243.102 244.117V169.152C243.109 164.559 241.295 160.15 238.056 156.894C234.818 153.637 230.42 151.798 225.827 151.78H70.9617C66.8869 151.783 62.9445 153.227 59.8313 155.856C56.7181 158.485 54.6343 162.13 53.9483 166.147L40.7739 241.684C40.4179 243.718 40.5112 245.806 41.0471 247.8C41.5829 249.795 42.5485 251.648 43.876 253.23C45.1892 254.796 46.8297 256.056 48.6821 256.92C50.5345 257.784 52.5538 258.232 54.5978 258.232ZM225.856 156.191C229.28 156.206 232.557 157.58 234.969 160.01C237.381 162.44 238.73 165.728 238.72 169.152V244.117C238.72 246.676 237.708 249.132 235.905 250.948C234.101 252.764 231.653 253.793 229.094 253.811H54.5978C53.1987 253.813 51.8163 253.507 50.5483 252.916C49.2803 252.324 48.1575 251.462 47.2593 250.389C46.3393 249.302 45.6704 248.024 45.3001 246.649C44.9298 245.273 44.8673 243.833 45.1169 242.43L58.2913 166.893C58.8011 163.9 60.3523 161.184 62.6707 159.224C64.9891 157.264 67.9257 156.186 70.9617 156.181L225.856 156.191Z" fill="black" fill-opacity="0.02"/>
<path d="M123.689 226.193C128.149 221.607 133.48 217.958 139.37 215.461C145.26 212.964 151.589 211.669 157.987 211.651H241.076V244.117C241.061 245.674 240.738 247.212 240.127 248.644C239.516 250.075 238.629 251.372 237.516 252.46C236.403 253.548 235.086 254.406 233.64 254.984C232.195 255.561 230.65 255.848 229.094 255.828H54.5979C52.8718 255.829 51.1665 255.452 49.6021 254.722C48.0376 253.993 46.6521 252.93 45.543 251.607C44.4339 250.285 43.6283 248.735 43.1829 247.067C42.7374 245.4 42.663 243.655 42.9648 241.955L43.2072 240.695H89.3807C95.7765 240.682 102.105 239.393 107.997 236.902C113.888 234.412 119.223 230.771 123.689 226.193Z" fill="white"/>
<path d="M54.5978 258.029H229.094C232.819 258.062 236.406 256.616 239.067 254.008C241.728 251.4 243.245 247.843 243.286 244.117V211.69C243.286 211.107 243.054 210.547 242.641 210.134C242.229 209.722 241.669 209.49 241.085 209.49H157.987C151.302 209.52 144.691 210.876 138.534 213.478C132.377 216.081 126.798 219.879 122.118 224.651C117.848 229.01 112.756 232.478 107.137 234.854C101.517 237.23 95.4819 238.468 89.3806 238.495H43.1878C42.6724 238.495 42.1732 238.675 41.7767 239.005C41.3802 239.334 41.1112 239.791 41.0162 240.298L40.7836 241.558C40.4181 243.578 40.5014 245.653 41.0275 247.636C41.5537 249.62 42.5098 251.463 43.8281 253.036C45.1464 254.609 46.7946 255.872 48.6559 256.737C50.5171 257.601 52.5456 258.046 54.5978 258.038V258.029ZM238.875 213.901V244.117C238.824 246.67 237.768 249.099 235.937 250.878C234.106 252.657 231.646 253.641 229.094 253.618H54.5978C53.2403 253.622 51.8974 253.337 50.6578 252.784C49.4182 252.231 48.3101 251.42 47.4067 250.407C46.5033 249.394 45.8252 248.2 45.4171 246.906C45.009 245.611 44.8803 244.244 45.0393 242.896H89.3806C96.065 242.867 102.677 241.511 108.834 238.909C114.991 236.306 120.57 232.508 125.249 227.734C129.519 223.38 134.61 219.915 140.228 217.54C145.845 215.166 151.878 213.929 157.977 213.901H238.875Z" fill="black" fill-opacity="0.02"/>
<path d="M54.5978 258.232H229.094C232.821 258.211 236.388 256.714 239.014 254.069C241.639 251.423 243.109 247.845 243.102 244.117V169.152C243.109 164.559 241.295 160.15 238.056 156.894C234.818 153.637 230.42 151.798 225.827 151.78H70.9617C66.8869 151.783 62.9445 153.227 59.8313 155.856C56.7181 158.485 54.6343 162.13 53.9483 166.147L40.7739 241.684C40.4179 243.718 40.5112 245.806 41.0471 247.8C41.5829 249.795 42.5485 251.648 43.876 253.23C45.1892 254.796 46.8297 256.056 48.6821 256.92C50.5345 257.784 52.5538 258.232 54.5978 258.232ZM225.856 156.191C229.28 156.206 232.557 157.58 234.969 160.01C237.381 162.44 238.73 165.728 238.72 169.152V244.117C238.72 246.676 237.708 249.132 235.905 250.948C234.101 252.764 231.653 253.793 229.094 253.811H54.5978C53.1987 253.813 51.8163 253.507 50.5483 252.916C49.2803 252.324 48.1575 251.462 47.2593 250.389C46.3393 249.302 45.6704 248.024 45.3001 246.649C44.9298 245.273 44.8673 243.833 45.1169 242.43L58.2913 166.893C58.8011 163.9 60.3523 161.184 62.6707 159.224C64.9891 157.264 67.9257 156.186 70.9617 156.181L225.856 156.191Z" fill="black" fill-opacity="0.02"/>
<path d="M399.363 327.681H422.503C431.964 327.681 439.632 350.385 439.632 378.091C439.632 405.797 431.964 428.501 422.503 428.501H399.363C389.901 428.501 382.233 405.787 382.233 378.091C382.233 350.395 389.901 327.681 399.363 327.681Z" fill="black" fill-opacity="0.02"/>
<path d="M422.503 427.754C413.048 427.754 405.383 405.276 405.383 377.548C405.383 349.82 413.048 327.342 422.503 327.342C431.958 327.342 439.623 349.82 439.623 377.548C439.623 405.276 431.958 427.754 422.503 427.754Z" fill="white"/>
<path d="M422.503 429.965C435.047 429.965 441.833 402.957 441.833 377.548C441.833 352.139 435.047 325.141 422.503 325.141C409.958 325.141 403.173 352.149 403.173 377.548C403.173 402.947 409.949 429.965 422.503 429.965ZM422.503 329.552C429.56 329.552 437.422 349.26 437.422 377.548C437.422 405.836 429.56 425.592 422.503 425.592C415.445 425.592 407.583 405.874 407.583 377.587C407.583 349.299 415.445 329.552 422.503 329.552Z" fill="black" fill-opacity="0.02"/>
<path d="M614.613 323.92H634.457C642.561 323.92 649.134 342.698 649.134 366.158C649.134 389.618 642.561 408.405 634.457 408.405H614.613C606.508 408.405 599.936 389.618 599.936 366.158C599.936 342.698 606.508 323.92 614.613 323.92Z" fill="black" fill-opacity="0.02"/>
<path d="M634.457 407.911C626.351 407.911 619.78 388.896 619.78 365.441C619.78 341.985 626.351 322.97 634.457 322.97C642.563 322.97 649.134 341.985 649.134 365.441C649.134 388.896 642.563 407.911 634.457 407.911Z" fill="white"/>
<path d="M634.457 410.082C645.411 410.082 651.344 387.097 651.344 365.488C651.344 343.88 645.411 320.759 634.457 320.759C623.502 320.759 617.57 343.783 617.57 365.44C617.57 387.097 623.493 410.082 634.457 410.082ZM634.457 325.131C640.341 325.131 646.933 342.358 646.933 365.401C646.933 388.444 640.341 405.671 634.457 405.671C628.573 405.671 621.98 388.444 621.98 365.401C621.98 342.358 628.573 325.17 634.457 325.17V325.131Z" fill="black" fill-opacity="0.02"/>
<path d="M575.4 323.92H595.971C604.395 323.92 611.22 343.997 611.22 368.678C611.22 393.36 604.434 413.446 595.971 413.446H575.371C566.956 413.446 560.131 393.36 560.131 368.678C560.131 343.997 566.985 323.92 575.4 323.92Z" fill="black" fill-opacity="0.02"/>
<path d="M596.01 412.651C587.593 412.651 580.77 392.643 580.77 367.961C580.77 343.279 587.593 323.271 596.01 323.271C604.426 323.271 611.249 343.279 611.249 367.961C611.249 392.643 604.426 412.651 596.01 412.651Z" fill="white"/>
<path d="M595.971 414.852C607.294 414.852 613.42 390.694 613.42 367.961C613.42 345.228 607.303 321.07 595.971 321.07C584.638 321.07 578.521 345.228 578.521 367.961C578.521 390.694 584.677 414.852 595.971 414.852ZM595.971 325.471C602.117 325.471 609 343.648 609 367.961C609 392.274 602.117 410.441 595.971 410.441C589.825 410.441 582.932 392.274 582.932 367.961C582.932 343.648 589.854 325.471 595.971 325.471Z" fill="black" fill-opacity="0.02"/>
<path d="M196.492 377.034H224.47C225.619 377.034 226.758 376.807 227.82 376.365C228.881 375.924 229.845 375.277 230.656 374.462C231.467 373.646 232.108 372.679 232.544 371.615C232.98 370.551 233.201 369.411 233.194 368.261V352.508H211.072C207.401 352.516 203.823 353.665 200.834 355.796C197.845 357.927 195.593 360.935 194.388 364.403L192.139 370.84C191.892 371.538 191.815 372.286 191.915 373.02C192.016 373.754 192.291 374.454 192.717 375.06C193.143 375.667 193.708 376.162 194.365 376.506C195.021 376.849 195.751 377.03 196.492 377.034Z" fill="white"/>
<path d="M196.492 379.235H224.469C227.364 379.212 230.132 378.045 232.169 375.99C234.207 373.934 235.349 371.156 235.346 368.261V352.508C235.344 351.924 235.11 351.364 234.696 350.952C234.281 350.539 233.721 350.308 233.136 350.308H211.014C206.887 350.318 202.866 351.609 199.505 354.004C196.145 356.399 193.612 359.779 192.256 363.676L190.007 370.113C189.643 371.144 189.531 372.247 189.681 373.33C189.831 374.413 190.238 375.444 190.868 376.337C191.499 377.23 192.334 377.959 193.304 378.464C194.274 378.968 195.35 379.232 196.444 379.235H196.492ZM230.984 354.718V368.29C230.989 370.024 230.306 371.689 229.085 372.92C227.863 374.15 226.203 374.846 224.469 374.853H196.492C196.111 374.853 195.735 374.76 195.398 374.582C195.06 374.405 194.77 374.149 194.553 373.835C194.322 373.516 194.173 373.145 194.117 372.755C194.061 372.365 194.101 371.967 194.233 371.596L196.482 365.159C197.538 362.126 199.51 359.495 202.125 357.63C204.74 355.765 207.87 354.758 211.082 354.748L230.984 354.718Z" fill="black" fill-opacity="0.02"/>
<path d="M80.0354 375.338H52.0579C50.9081 375.338 49.7696 375.111 48.7079 374.669C47.6461 374.228 46.6822 373.581 45.8714 372.765C45.0606 371.95 44.419 370.983 43.9834 369.918C43.5478 368.854 43.3268 367.714 43.3331 366.565V350.812H65.465C69.142 350.809 72.7282 351.954 75.7239 354.086C78.7196 356.218 80.9757 359.231 82.1778 362.706L84.4366 369.143C84.6855 369.846 84.7617 370.598 84.6588 371.336C84.5559 372.074 84.2768 372.776 83.8452 373.384C83.4135 373.991 82.8421 374.486 82.179 374.826C81.5159 375.166 80.7806 375.342 80.0354 375.338Z" fill="white"/>
<path d="M52.0579 377.538H80.0354C81.1286 377.536 82.2052 377.271 83.1752 376.767C84.1452 376.263 84.9803 375.533 85.6106 374.64C86.2409 373.747 86.648 372.716 86.7979 371.633C86.9479 370.55 86.8362 369.447 86.4723 368.416L84.2233 361.979C82.8672 358.082 80.3338 354.702 76.9734 352.307C73.6129 349.912 69.5915 348.621 65.465 348.611H43.3428C42.7583 348.611 42.1975 348.842 41.7833 349.255C41.3691 349.667 41.1351 350.227 41.1325 350.811V366.565C41.1299 369.467 42.2786 372.253 44.3267 374.31C46.3748 376.367 49.1551 377.528 52.0579 377.538ZM65.465 353.022C68.677 353.032 71.8066 354.039 74.4217 355.904C77.0369 357.769 79.0085 360.4 80.0645 363.433L82.3135 369.87C82.4455 370.242 82.4854 370.639 82.4296 371.029C82.3739 371.419 82.2243 371.79 81.9936 372.11C81.7764 372.423 81.4867 372.679 81.1491 372.856C80.8115 373.034 80.4361 373.127 80.0548 373.128H52.0773C50.3435 373.12 48.6836 372.424 47.4622 371.194C46.2408 369.963 45.5576 368.298 45.5628 366.565V352.993L65.465 353.022Z" fill="black" fill-opacity="0.02"/>
<path d="M99.9958 393.602H173.672C175.533 393.6 177.361 393.105 178.968 392.166C180.576 391.228 181.906 389.88 182.823 388.26L186.08 382.541C186.335 382.099 186.47 381.598 186.47 381.088C186.47 380.579 186.337 380.078 186.082 379.636C185.828 379.194 185.462 378.827 185.021 378.571C184.58 378.315 184.079 378.18 183.57 378.178H90.1465C89.6367 378.18 89.1362 378.315 88.6952 378.571C88.2541 378.827 87.8881 379.194 87.6338 379.636C87.3795 380.078 87.2458 380.579 87.2461 381.088C87.2465 381.598 87.3808 382.099 87.6357 382.541L90.8833 388.26C91.7978 389.874 93.1219 391.217 94.722 392.155C96.322 393.093 98.1412 393.592 99.9958 393.602Z" fill="white"/>
<path d="M99.9958 395.802H173.672C175.922 395.797 178.132 395.198 180.076 394.064C182.02 392.93 183.63 391.302 184.743 389.346L187.99 383.626C188.435 382.85 188.668 381.971 188.666 381.077C188.665 380.183 188.428 379.304 187.981 378.53C187.533 377.756 186.89 377.112 186.116 376.664C185.342 376.217 184.464 375.98 183.57 375.978H90.1465C89.2525 375.981 88.375 376.218 87.6012 376.666C86.8275 377.114 86.1846 377.757 85.7365 378.531C85.2884 379.304 85.0508 380.182 85.0472 381.076C85.0437 381.97 85.2744 382.849 85.7163 383.626L88.9638 389.346C90.0738 391.296 91.6778 392.919 93.6144 394.053C95.5511 395.186 97.752 395.79 99.9958 395.802ZM183.521 380.388C183.641 380.387 183.759 380.417 183.863 380.477C183.967 380.537 184.053 380.623 184.113 380.728C184.176 380.836 184.21 380.96 184.21 381.086C184.21 381.213 184.176 381.336 184.113 381.445L180.865 387.165C180.136 388.444 179.083 389.509 177.812 390.251C176.54 390.993 175.096 391.386 173.623 391.391H99.9474C98.4748 391.388 97.0292 390.996 95.7574 390.253C94.4855 389.511 93.4327 388.445 92.7058 387.165L89.4485 381.445C89.3846 381.336 89.3509 381.213 89.3509 381.086C89.3509 380.96 89.3846 380.836 89.4485 380.728C89.5068 380.623 89.5927 380.535 89.6969 380.476C89.8012 380.416 89.9197 380.386 90.0399 380.388H183.521Z" fill="black" fill-opacity="0.02"/>
<path d="M304.592 171.236H293.773C292.647 171.236 291.567 171.684 290.771 172.48C289.975 173.276 289.527 174.356 289.527 175.482V225.766C289.527 226.874 289.967 227.937 290.751 228.721C291.535 229.504 292.597 229.944 293.706 229.944H301.81C303.393 229.946 304.961 229.635 306.424 229.03C307.887 228.425 309.217 227.538 310.337 226.419C311.457 225.299 312.345 223.971 312.951 222.508C313.557 221.045 313.869 219.478 313.869 217.895V180.504C313.869 178.046 312.893 175.689 311.155 173.951C309.417 172.213 307.06 171.236 304.602 171.236H304.592Z" fill="white"/>
<path d="M293.696 232.145H301.8C305.58 232.142 309.204 230.64 311.877 227.969C314.551 225.297 316.055 221.674 316.06 217.894V180.504C316.055 177.464 314.845 174.55 312.696 172.4C310.546 170.251 307.632 169.041 304.592 169.036H293.764C292.055 169.038 290.416 169.718 289.208 170.927C288 172.135 287.32 173.773 287.317 175.482V225.766C287.32 227.457 287.992 229.078 289.188 230.274C290.384 231.469 292.005 232.142 293.696 232.145ZM304.592 173.446C306.463 173.449 308.257 174.193 309.58 175.516C310.903 176.839 311.647 178.633 311.649 180.504V217.894C311.644 220.504 310.605 223.005 308.758 224.85C306.912 226.694 304.41 227.731 301.8 227.734H293.696C293.182 227.734 292.688 227.53 292.325 227.166C291.961 226.803 291.757 226.309 291.757 225.795V175.482C291.757 174.942 291.971 174.425 292.353 174.043C292.735 173.661 293.253 173.446 293.793 173.446H304.592Z" fill="black" fill-opacity="0.02"/>
<path d="M19.2722 169.152H8.83154C7.08065 169.152 5.40143 169.847 4.16336 171.085C2.92529 172.323 2.22979 174.003 2.22979 175.754V222.354C2.22979 223.676 2.49026 224.986 2.99644 226.208C3.50262 227.43 4.24459 228.54 5.17988 229.476C6.11518 230.411 7.22551 231.153 8.44754 231.659C9.66956 232.165 10.9793 232.426 12.302 232.426H18.6614C19.3685 232.426 20.0466 232.145 20.5465 231.645C21.0465 231.145 21.3273 230.467 21.3273 229.76V171.188C21.3273 170.645 21.1118 170.125 20.7282 169.741C20.3446 169.358 19.8244 169.142 19.2819 169.142L19.2722 169.152Z" fill="white"/>
<path d="M12.2923 234.617H18.6517C19.9373 234.617 21.1702 234.106 22.0792 233.197C22.9882 232.288 23.4988 231.055 23.4988 229.77V171.187C23.4963 170.062 23.0481 168.984 22.2524 168.188C21.4567 167.392 20.3782 166.944 19.2528 166.941H8.81215C6.47584 166.944 4.23595 167.873 2.58393 169.525C0.93191 171.177 0.00265503 173.417 8.96454e-05 175.753V222.354C0.00779152 225.609 1.30627 228.728 3.61069 231.027C5.9151 233.326 9.03726 234.617 12.2923 234.617ZM19.0783 171.333V229.77C19.0758 229.89 19.0271 230.004 18.9421 230.089C18.8572 230.174 18.7427 230.223 18.6227 230.225H12.2633C10.1773 230.223 8.17757 229.392 6.70344 227.916C5.2293 226.44 4.4013 224.44 4.4013 222.354V175.753C4.40386 174.587 4.86836 173.469 5.69319 172.644C6.51801 171.819 7.63597 171.355 8.80245 171.352L19.0783 171.333Z" fill="black" fill-opacity="0.02"/>
<path d="M42.0633 285.996H237.159C237.703 285.999 238.223 286.216 238.606 286.601C238.99 286.987 239.205 287.508 239.205 288.051V300.838C239.209 301.866 239.01 302.885 238.619 303.836C238.229 304.787 237.655 305.652 236.93 306.382C236.206 307.111 235.344 307.69 234.395 308.086C233.447 308.483 232.429 308.688 231.401 308.69H225.526C224.037 308.688 222.579 309.115 221.325 309.919C220.072 310.724 219.077 311.872 218.459 313.227L212.352 326.411C209.772 332.032 205.637 336.797 200.435 340.142C195.233 343.487 189.182 345.272 182.998 345.286H90.3792C84.1946 345.278 78.1416 343.499 72.9362 340.159C67.7308 336.82 63.5907 332.059 61.0057 326.44L54.9081 313.256C54.2901 311.901 53.295 310.753 52.0418 309.948C50.7886 309.144 49.3303 308.717 47.841 308.719C45.7729 308.701 43.7961 307.865 42.3427 306.394C40.8894 304.922 40.0779 302.935 40.0857 300.867V288.08C40.0752 287.543 40.2768 287.023 40.6469 286.633C41.017 286.242 41.5258 286.014 42.0633 285.996Z" fill="white"/>
<path d="M90.3598 347.486H182.998C189.6 347.464 196.058 345.56 201.616 341.998C207.175 338.435 211.601 333.361 214.378 327.371L220.475 314.177C220.923 313.208 221.638 312.387 222.536 311.81C223.434 311.234 224.478 310.925 225.546 310.92H231.42C234.079 310.91 236.625 309.846 238.5 307.961C240.376 306.077 241.427 303.526 241.425 300.867V288.08C241.425 286.952 240.978 285.87 240.182 285.071C239.386 284.272 238.307 283.82 237.179 283.815H42.0633C40.9354 283.82 39.8555 284.272 39.0597 285.071C38.264 285.87 37.8172 286.952 37.8172 288.08V300.867C37.8147 303.526 38.8663 306.077 40.7417 307.961C42.6171 309.846 45.1631 310.91 47.8217 310.92C48.8879 310.924 49.9307 311.233 50.8273 311.81C51.7238 312.387 52.4367 313.208 52.8821 314.177L58.9797 327.361C61.7557 333.352 66.1822 338.427 71.7402 341.992C77.2981 345.556 83.7571 347.462 90.3598 347.486ZM237.159 288.226L236.994 300.828C237 302.318 236.413 303.749 235.365 304.806C234.316 305.864 232.89 306.463 231.401 306.47H225.526C223.618 306.478 221.751 307.03 220.144 308.06C218.537 309.09 217.257 310.556 216.452 312.287L210.355 325.471C207.942 330.704 204.087 335.14 199.241 338.259C194.395 341.377 188.76 343.048 182.998 343.076H90.3793C84.618 343.054 78.9825 341.39 74.1335 338.279C69.2846 335.167 65.4234 330.738 63.0028 325.51L56.9051 312.326C56.1035 310.595 54.825 309.128 53.2196 308.098C51.6143 307.068 49.7485 306.517 47.8411 306.509C46.3515 306.501 44.9259 305.903 43.8772 304.845C42.8285 303.787 42.2423 302.357 42.2475 300.867V288.265L237.159 288.226Z" fill="black" fill-opacity="0.02"/>
<path d="M723.673 314.865C723.961 314.865 724.247 314.807 724.513 314.695C724.779 314.584 725.021 314.421 725.224 314.216C725.431 314.012 725.595 313.769 725.707 313.501C725.818 313.233 725.875 312.945 725.873 312.655V46.2388C725.873 45.7001 725.675 45.1801 725.318 44.7767C724.961 44.3732 724.469 44.1141 723.934 44.0479L359.18 0.0168052C358.871 -0.0216405 358.557 0.00605697 358.259 0.0980637C357.961 0.19007 357.686 0.344287 357.453 0.550503C357.219 0.756719 357.032 1.01023 356.903 1.29425C356.775 1.57827 356.708 1.88632 356.708 2.198V311.686C356.708 312.27 356.94 312.831 357.352 313.245C357.764 313.659 358.324 313.893 358.909 313.896L723.663 314.865H723.673ZM721.462 48.1873V310.445L361.119 309.475V4.7088L721.462 48.1873Z" fill="black" fill-opacity="0.02"/>
<path d="M619.819 291.425C620.402 291.425 620.962 291.193 621.375 290.78C621.787 290.368 622.019 289.808 622.019 289.224V61.3233C621.982 60.7636 621.734 60.239 621.324 59.8558C620.915 59.4725 620.375 59.2593 619.814 59.2593C619.253 59.2593 618.713 59.4725 618.303 59.8558C617.894 60.239 617.645 60.7636 617.608 61.3233V289.224C617.608 289.514 617.666 289.801 617.777 290.069C617.888 290.336 618.051 290.579 618.256 290.784C618.462 290.988 618.705 291.15 618.974 291.26C619.242 291.37 619.529 291.426 619.819 291.425Z" fill="black" fill-opacity="0.02"/>
<path d="M582.273 291.425C582.857 291.425 583.416 291.193 583.829 290.78C584.242 290.368 584.474 289.808 584.474 289.224V56.3306C584.436 55.7709 584.188 55.2463 583.778 54.8631C583.369 54.4798 582.829 54.2666 582.268 54.2666C581.707 54.2666 581.167 54.4798 580.758 54.8631C580.348 55.2463 580.1 55.7709 580.063 56.3306V289.224C580.063 289.514 580.12 289.801 580.231 290.069C580.342 290.336 580.505 290.579 580.711 290.784C580.916 290.988 581.16 291.15 581.428 291.26C581.696 291.37 581.983 291.426 582.273 291.425Z" fill="black" fill-opacity="0.02"/>
<path d="M544.727 291.425C545.017 291.426 545.303 291.37 545.571 291.26C545.839 291.15 546.082 290.988 546.286 290.783C546.491 290.579 546.653 290.336 546.763 290.068C546.873 289.8 546.929 289.514 546.928 289.224V52.579C546.928 51.9954 546.696 51.4356 546.283 51.023C545.871 50.6103 545.311 50.3784 544.727 50.3784C544.144 50.3784 543.584 50.6103 543.171 51.023C542.759 51.4356 542.527 51.9954 542.527 52.579V289.224C542.525 289.514 542.582 289.8 542.692 290.068C542.802 290.336 542.964 290.579 543.168 290.783C543.373 290.988 543.616 291.15 543.884 291.26C544.151 291.37 544.438 291.426 544.727 291.425Z" fill="black" fill-opacity="0.02"/>
<path d="M507.182 291.425C507.471 291.426 507.759 291.37 508.027 291.26C508.295 291.15 508.539 290.988 508.744 290.784C508.949 290.579 509.112 290.336 509.223 290.069C509.335 289.801 509.392 289.514 509.392 289.224V46.6753C509.355 46.1157 509.106 45.5911 508.697 45.2078C508.287 44.8246 507.747 44.6113 507.186 44.6113C506.626 44.6113 506.086 44.8246 505.676 45.2078C505.267 45.5911 505.018 46.1157 504.981 46.6753V289.224C504.981 289.808 505.213 290.368 505.626 290.78C506.038 291.193 506.598 291.425 507.182 291.425Z" fill="black" fill-opacity="0.02"/>
<path d="M469.636 291.425C469.926 291.426 470.213 291.37 470.481 291.26C470.749 291.15 470.993 290.988 471.198 290.784C471.404 290.579 471.567 290.336 471.678 290.069C471.789 289.801 471.846 289.514 471.846 289.224V43.1563C471.809 42.5966 471.561 42.072 471.151 41.6888C470.742 41.3055 470.202 41.0923 469.641 41.0923C469.08 41.0923 468.54 41.3055 468.13 41.6888C467.721 42.072 467.472 42.5966 467.435 43.1563V289.224C467.435 289.513 467.492 289.799 467.603 290.066C467.713 290.333 467.876 290.576 468.08 290.78C468.284 290.985 468.527 291.147 468.794 291.257C469.061 291.368 469.347 291.425 469.636 291.425Z" fill="black" fill-opacity="0.02"/>
<path d="M432.139 291.425C432.722 291.425 433.282 291.193 433.695 290.781C434.108 290.368 434.339 289.808 434.339 289.225V38.2124C434.302 37.6528 434.054 37.1282 433.644 36.7449C433.235 36.3617 432.695 36.1484 432.134 36.1484C431.573 36.1484 431.033 36.3617 430.624 36.7449C430.214 37.1282 429.966 37.6528 429.929 38.2124V289.225C429.928 289.514 429.986 289.801 430.097 290.069C430.208 290.337 430.371 290.58 430.576 290.784C430.782 290.989 431.026 291.15 431.294 291.26C431.562 291.37 431.849 291.426 432.139 291.425Z" fill="black" fill-opacity="0.02"/>
<path d="M394.554 291.425C395.138 291.425 395.698 291.193 396.11 290.781C396.523 290.368 396.755 289.808 396.755 289.225V34.1701C396.775 33.8681 396.733 33.5653 396.631 33.2804C396.529 32.9954 396.37 32.7344 396.163 32.5135C395.957 32.2925 395.707 32.1164 395.429 31.996C395.151 31.8756 394.852 31.8135 394.549 31.8135C394.247 31.8135 393.948 31.8756 393.67 31.996C393.392 32.1164 393.142 32.2925 392.936 32.5135C392.729 32.7344 392.57 32.9954 392.468 33.2804C392.366 33.5653 392.324 33.8681 392.344 34.1701V289.225C392.344 289.514 392.401 289.801 392.512 290.069C392.624 290.337 392.787 290.58 392.992 290.784C393.197 290.989 393.441 291.15 393.709 291.261C393.977 291.371 394.265 291.427 394.554 291.425Z" fill="black" fill-opacity="0.02"/>
</svg>
