<?xml version="1.0" standalone="no"?>
<!DOCTYPE svg PUBLIC "-//W3C//DTD SVG 1.1//EN" "http://www.w3.org/Graphics/SVG/1.1/DTD/svg11.dtd">
<svg xmlns="http://www.w3.org/2000/svg">
<metadata>Copyright (C) 2024 by original authors @ fontello.com</metadata>
<defs>
<font id="rt-fontello" horiz-adv-x="1000" >
<font-face font-family="rt-fontello" font-weight="400" font-stretch="normal" units-per-em="1000" ascent="850" descent="-150" />
<missing-glyph horiz-adv-x="1000" />
<glyph glyph-name="plus" unicode="&#xe800;" d="M911 462l0-223-335 0 0-336-223 0 0 336-335 0 0 223 335 0 0 335 223 0 0-335 335 0z" horiz-adv-x="928" />

<glyph glyph-name="clock" unicode="&#xe801;" d="M498 771c-232 0-421-189-421-421 0-232 189-421 421-421 232 0 420 189 420 421 0 232-188 421-420 421z m-489-421c0 270 219 489 489 489 270 0 488-219 488-489 0-270-218-489-488-489-270 0-489 219-489 489z m489 307c19 0 34-15 34-34v-252l163-81c17-9 23-29 15-46-8-17-29-24-46-15l-182 91c-11 5-18 17-18 30v273c0 19 15 34 34 34z" horiz-adv-x="1000" />

<glyph glyph-name="comments" unicode="&#xe802;" d="M148 763c-17 0-33-7-45-19-11-11-18-27-18-44v-710l136 137c7 7 17 11 27 11h600c16 0 32 6 44 18 11 12 18 27 18 44v500c0 17-7 33-18 44-12 12-28 19-44 19h-700z m-98 34c26 26 61 41 98 41h700c36 0 71-15 97-41 26-26 40-60 40-97v-500c0-36-14-71-40-97-26-26-61-40-97-40h-585l-189-190c-11-10-27-14-41-8-14 6-23 20-23 35v800c0 37 14 71 40 97z" horiz-adv-x="1000" />

<glyph glyph-name="comments-dot" unicode="&#xe803;" d="M500 491c-9 0-18-3-26-8-8-5-14-13-17-21-4-9-5-18-3-27 2-9 6-18 13-24 6-7 15-11 24-13 9-2 18-1 27 2 9 4 16 10 21 18 5 7 8 17 8 26 0 12-5 24-14 33-9 9-21 14-33 14z m328 328h-656c-37 0-73-15-100-41-26-27-41-63-41-100v-469c0-37 15-73 41-99 27-26 63-41 100-41h543l174-174c4-5 9-8 15-10 6-3 12-4 18-4 6 0 12 1 18 4 8 3 16 9 21 17 5 8 8 17 8 26v750c0 37-15 73-41 100-27 26-63 41-100 41z m47-778l-107 108c-5 4-10 8-16 10-5 2-11 4-18 4h-562c-13 0-24 4-33 13-9 9-14 21-14 33v469c0 13 5 25 14 33 9 9 20 14 33 14h656c13 0 25-5 33-14 9-8 14-20 14-33v-637z m-562 450c-10 0-19-3-26-8-8-5-14-13-18-21-3-9-4-18-2-27 1-9 6-18 12-24 7-7 15-11 24-13 9-2 19-1 27 2 9 4 16 10 22 18 5 7 7 17 7 26 0 12-5 24-13 33-9 9-21 14-33 14z m375 0c-10 0-19-3-26-8-8-5-14-13-18-21-3-9-4-18-2-27 1-9 6-18 12-24 7-7 15-11 24-13 10-2 19-1 27 2 9 4 16 10 22 18 5 7 7 17 7 26 0 12-5 24-13 33-9 9-21 14-33 14z" horiz-adv-x="1000" />

<glyph glyph-name="compare" unicode="&#xe804;" d="M601 832c13 13 35 13 48 0l166-167c13-13 13-34 0-47l-166-167c-13-13-35-13-48 0-13 13-13 35 0 48l110 109h-503c-35 0-69-14-94-39-25-25-39-59-39-94v-83c0-19-15-34-33-34-19 0-34 15-34 34v83c0 53 21 104 59 141 37 38 88 59 141 59h503l-110 110c-13 13-13 34 0 47z m191-490c18 0 33-15 33-34v-83c0-53-21-104-59-141-37-38-88-59-141-59h-503l110-110c13-13 13-34 0-47-13-13-34-13-47 0l-167 167c-13 13-13 34 0 47l167 167c13 13 34 13 47 0 13-13 13-35 0-48l-110-109h503c35 0 69 14 94 39 25 25 39 59 39 94v83c0 19 15 34 34 34z" horiz-adv-x="833" />

<glyph glyph-name="e-mail" unicode="&#xe805;" d="M103 704l508-355 508 355c-9 27-34 46-63 46h-889c-30 0-55-19-64-46z m1019-106l-485-340c-16-11-36-11-51 0l-486 340v-581c0-37 30-67 67-67h889c36 0 66 30 66 67v581z m-1111 85c0 86 70 156 156 156h889c85 0 155-70 155-156v-666c0-86-70-156-155-156h-889c-86 0-156 70-156 156v666z" horiz-adv-x="1222" />

<glyph glyph-name="facebook" unicode="&#xe806;" d="M495 288l27 181h-171v117c0 49 24 98 100 98h78v154c0 0-70 12-138 12-141 0-234-87-234-244v-137h-157v-181h157v-438h194v438h144z" horiz-adv-x="529" />

<glyph glyph-name="flash" unicode="&#xe807;" d="M515 838c14-6 23-22 21-38l-40-323h368c14 0 27-8 33-21 6-12 4-27-5-38l-455-546c-10-12-28-16-42-10-15 6-24 22-22 38l40 323h-367c-15 0-27 8-33 21-6 12-4 28 5 38l454 546c10 12 28 16 43 10z m-392-542h332c10 0 20-5 27-13 7-8 10-18 9-28l-30-241 325 391h-331c-11 0-21 4-28 12-7 8-10 18-8 28l30 241-326-390z" horiz-adv-x="909" />

<glyph glyph-name="global" unicode="&#xe808;" d="M88 390h192c10 131 54 257 128 364-172-39-303-185-320-364z m412 352c-80-101-128-223-139-352h278c-10 129-59 251-139 352z m139-432h-278c11-129 59-251 139-352 80 101 129 223 139 352z m-359 0h-192c17-179 148-325 320-364-74 107-118 233-128 364z m312-364c172 39 303 185 320 364h-192c-9-131-54-257-128-364z m320 444c-17 179-148 325-320 364 74-107 119-233 128-364h192z m-907-40c0 273 222 495 495 495 273 0 495-222 495-495 0-273-222-495-495-495-273 0-495 222-495 495z" horiz-adv-x="1000" />

<glyph glyph-name="grid" unicode="&#xe809;" d="M94 38c25 0 49-10 66-28 18-18 28-41 28-66 0-25-10-49-28-67-17-17-41-27-66-27-25 0-49 10-66 27-18 18-28 42-28 67 0 25 10 48 28 66 17 18 41 28 66 28z m406 0c25 0 49-10 66-28 18-18 28-41 28-66 0-25-10-49-28-67-17-17-41-27-66-27-25 0-49 10-66 27-18 18-28 42-28 67 0 25 10 48 28 66 17 18 41 28 66 28z m406 0c25 0 49-10 67-28 17-18 27-41 27-66 0-25-10-49-27-67-18-17-42-27-67-27-25 0-48 10-66 27-18 18-27 42-27 67 0 25 9 48 27 66 18 18 41 28 66 28z m-812 406c25 0 49-10 66-28 18-17 28-41 28-66 0-25-10-49-28-66-17-18-41-28-66-28-25 0-49 10-66 28-18 17-28 41-28 66 0 25 10 49 28 66 17 18 41 28 66 28z m406 0c25 0 49-10 66-28 18-17 28-41 28-66 0-25-10-49-28-66-17-18-41-28-66-28-25 0-49 10-66 28-18 17-28 41-28 66 0 25 10 49 28 66 17 18 41 28 66 28z m406 0c25 0 49-10 67-28 17-17 27-41 27-66 0-25-10-49-27-66-18-18-42-28-67-28-25 0-48 10-66 28-18 17-27 41-27 66 0 25 9 49 27 66 18 18 41 28 66 28z m-812 406c12 0 24-2 36-7 11-5 21-12 30-20 9-9 16-19 20-31 5-11 8-23 8-36 0-12-3-24-8-36-4-11-11-21-20-30-9-9-19-16-30-20-12-5-24-7-36-7-25 0-49 9-66 27-18 18-28 41-28 66 0 25 10 49 28 67 17 17 41 27 66 27z m406 0c12 0 25-2 36-7 11-5 22-12 30-20 9-9 16-19 21-31 4-11 7-23 7-36 0-12-3-24-7-36-5-11-12-21-21-30-8-9-19-16-30-20-11-5-24-7-36-7-25 0-49 9-66 27-18 18-28 41-28 66 0 25 10 49 28 67 17 17 41 27 66 27z m406 0c13 0 25-2 36-7 12-5 22-12 31-20 8-9 15-19 20-31 5-11 7-23 7-36 0-12-2-24-7-36-5-11-12-21-20-30-9-9-19-16-31-20-11-5-23-7-36-7-25 0-48 9-66 27-18 18-27 41-27 66 0 25 9 49 27 67 18 17 41 27 66 27z" horiz-adv-x="1000" />

<glyph glyph-name="instagram" unicode="&#xe80a;" d="M500 606c-142 0-256-114-256-256 0-142 114-256 256-256 142 0 256 114 256 256 0 142-114 256-256 256z m0-423c-92 0-166 75-166 167 0 92 74 167 166 167 92 0 167-75 167-167 0-92-75-167-167-167z m327 434c0-33-27-60-60-60-33 0-60 27-60 60 0 33 27 60 60 60 33 0 60-27 60-60z m170-61c-4 80-23 151-81 210-59 58-130 77-210 81-82 4-330 4-412 0-80-4-151-23-210-81-58-58-76-129-80-210-5-82-5-330 0-412 3-80 22-151 80-210 59-58 130-77 210-81 82-4 330-4 412 0 80 4 151 23 210 81 58 59 77 130 81 210 4 82 4 330 0 412z m-107-501c-18-43-51-77-95-95-66-26-222-20-295-20-73 0-229-6-295 20-43 18-77 51-95 95-26 66-20 222-20 295 0 73-5 229 20 295 18 44 52 77 95 95 66 26 222 20 295 20 73 0 229 6 295-20 44-18 77-51 95-95 26-66 20-222 20-295 0-73 6-229-20-295z" horiz-adv-x="1000" />

<glyph glyph-name="listing" unicode="&#xe80b;" d="M29 767c0 30 24 54 54 54h1c30 0 54-24 54-54 0-30-24-54-54-54h-1c-30 0-54 24-54 54z m204 0c0 30 24 54 54 54h963c30 0 54-24 54-54 0-30-24-54-54-54h-963c-30 0-54 24-54 54z m-204-417c0 30 24 54 54 54h1c30 0 54-24 54-54 0-30-24-54-54-54h-1c-30 0-54 24-54 54z m204 0c0 30 24 54 54 54h963c30 0 54-24 54-54 0-30-24-54-54-54h-963c-30 0-54 24-54 54z m-204-417c0 30 24 54 54 54h1c30 0 54-24 54-54 0-30-24-54-54-54h-1c-30 0-54 24-54 54z m204 0c0 30 24 54 54 54h963c30 0 54-24 54-54 0-30-24-54-54-54h-963c-30 0-54 24-54 54z" horiz-adv-x="1333" />

<glyph glyph-name="location" unicode="&#xe80c;" d="M341 844l-318-182c-14-8-23-23-23-39v-728c0-16 9-31 23-39 14-8 31-8 45 0l297 170 342-171c14-7 30-7 43 1l318 182c14 8 23 23 23 39v728c0 16-9 31-23 39-14 8-31 8-45 0l-297-170-342 171c-14 7-30 7-43-1z m68-739v626l273-136v-626l-273 136z m-91 621v-622l-227-130v622l227 130z m455-130l227 130v-622l-227-130v622z" horiz-adv-x="1091" />

<glyph glyph-name="lock" unicode="&#xe80d;" d="M400 850c-158 0-285-125-285-281v-125c-54 0-95-41-95-94v-406c0-53 41-94 95-94h570c54 0 95 41 95 94v406c0 53-41 94-95 94v125c0 156-127 281-285 281z m317-500v-406c0-19-13-32-32-32h-570c-19 0-32 13-32 32v406c0 19 13 31 32 31h570c19 0 32-12 32-31z m-539 94v125c0 122 99 219 222 219 124 0 222-97 222-219v-125h-444z m222-156c-54 0-95-41-95-94 0-41 25-75 63-88v-68c0-19 13-32 32-32 19 0 32 13 32 32v68c38 13 63 47 63 88 0 53-41 94-95 94z m0-125c-19 0-32 12-32 31 0 19 13 31 32 31 19 0 32-12 32-31 0-19-13-31-32-31z" horiz-adv-x="800" />

<glyph glyph-name="long-arrow-left" unicode="&#xe80e;" d="M544 832c25-25 25-64 0-89l-331-330 1975 0c34 0 62-28 62-63 0-34-28-62-62-62l-1975 0 331-331c25-25 25-64 0-89-24-24-64-24-88 0l-438 438c-24 24-24 64 0 88l438 438c24 24 64 24 88 0z" horiz-adv-x="2250" />

<glyph glyph-name="phone" unicode="&#xe80f;" d="M811-72c-5 0-5 0-11 0-128 11-244 55-350 122-100 61-183 144-244 244-73 112-117 234-128 356 0 17 0 33 5 44 6 17 11 28 23 39 11 11 22 23 38 28 17 6 28 11 45 11h117c27 0 55-11 72-28 22-16 33-44 39-66 5-39 11-72 27-106 6-22 12-39 6-61-6-22-17-39-33-55l-28-34c44-72 111-139 183-183l34 33c16 17 33 28 55 28 22 6 45 6 61-6 34-11 67-22 100-27 28-6 50-17 72-39 17-22 28-45 28-72v-117c0-17-5-33-11-45-5-16-17-27-28-38-11-12-22-17-39-23-11-5-22-5-33-5z m-505 778c0 0 0 0 0 0h-117c-6 0-11 0-17-6-5 0-11-6-16-11-6 0-6-6-12-11 0-6 0-11 0-17 12-117 50-228 117-322 56-89 133-167 222-222 95-61 206-100 323-117 5 0 11 0 16 0 6 0 11 6 17 11 5 6 5 11 11 17 0 5 6 11 6 16v117c0 0 0 0 0 0 0 11-6 22-12 28-5 11-16 11-27 17-39 5-78 16-117 27-6 6-17 6-28 0-5 0-16-5-22-11l-50-50c-11-11-28-11-39-5-105 61-189 144-244 244-11 17-6 33 5 45l50 50c6 5 6 11 11 22 0 11 0 16 0 28-16 33-27 72-33 111 0 11-6 22-17 27-5 6-16 12-27 12z" horiz-adv-x="1000" />

<glyph glyph-name="phone-alt" unicode="&#xe810;" d="M824-138c-232 0-460 112-628 312-136 156-208 340-180 468l4 12c48 80 112 136 196 184l24 12 204-256-92-148c8-28 40-92 104-152 72-68 152-96 180-108l160 84 288-196-16-24c-48-80-112-140-200-184l-4-4-8 0c-12 0-20 0-32 0z m-752 764c-16-108 48-276 168-416 164-192 384-300 604-292 64 36 116 76 152 136l-208 144-148-80-12 4c-4 0-116 32-216 124-96 88-124 192-124 196l-4 8 84 136-144 184c-64-36-112-84-152-144z m756-200l-8 28c-16 76-80 136-164 152l-28 4 12 60 28-4c108-20 192-96 212-196l8-28-60-16z m184 0l-4 28c-20 172-164 304-352 324l-28 4 8 60 28-4c216-24 380-176 404-376l4-28-60-8z" horiz-adv-x="1080" />

<glyph glyph-name="pintarest" unicode="&#xe811;" d="M406 850c-204 0-406-137-406-359 0-141 79-221 127-221 19 0 31 55 31 71 0 19-47 58-47 136 0 161 121 275 279 275 136 0 236-77 236-220 0-106-42-306-180-306-49 0-92 36-92 88 0 76 53 149 53 227 0 133-187 109-187-52 0-33 4-71 19-101-27-119-84-297-84-419 0-38 6-75 9-113 7-8 4-7 14-3 100 138 97 165 142 346 25-47 88-72 138-72 212 0 307 207 307 394 0 199-171 329-359 329z" horiz-adv-x="765" />

<glyph glyph-name="plus-1" unicode="&#xe812;" d="M83 350h834m-417 417l0-834" horiz-adv-x="1000" />

<glyph glyph-name="quick-view" unicode="&#xe813;" d="M106 350c7 11 16 27 28 45 26 40 64 94 114 147 100 107 242 208 419 208 176 0 318-101 419-208 49-53 88-107 114-147 12-18 21-34 27-45-6-11-15-27-27-45-26-40-65-94-114-147-101-107-243-208-419-208-177 0-319 101-419 208-50 53-88 107-114 147-12 18-21 34-28 45z m1172 0c40 20 40 20 40 20l-1 0 0 0 0 2c-1 1-2 2-2 4-2 3-5 9-9 15-7 13-18 31-32 53-28 43-69 101-123 159-108 115-272 236-484 236-212 0-376-121-484-236-54-58-96-116-124-159-14-22-25-40-32-53-3-6-6-12-8-15-1-2-2-3-2-4l-1-2 0 0 0 0c0 0 0 0 40-20l-40 20c-6-13-6-27 0-40l40 20c-40-20-40-20-40-20l0 0 0 0 0 0 1-2c0-1 1-2 2-4 2-3 5-8 8-15 7-13 18-31 32-53 28-43 70-101 124-159 108-115 272-236 484-236 212 0 376 121 484 236 54 58 95 116 123 159 14 22 25 40 32 53 4 7 7 12 9 15 0 2 1 3 2 4l0 2 0 0 1 0c0 0 0 0-40 20z m0 0l40-20c6 13 6 27 0 40l-40-20z m-611 122c-68 0-123-54-123-122 0-67 55-122 123-122 67 0 122 55 122 122 0 68-55 122-122 122z m-211-122c0 117 94 211 211 211 116 0 211-94 211-211 0-117-95-211-211-211-117 0-211 94-211 211z" horiz-adv-x="1333" />

<glyph glyph-name="report" unicode="&#xe814;" d="M167-128c-17 0-34 17-34 34v844c0 11 6 17 11 22 6 6 56 56 200 56 73 0 134-22 189-45 56-22 106-44 167-44 117 0 156 33 156 33 11 11 22 11 38 6 12-6 23-17 23-28v-533c0-11-6-17-11-23-6-5-56-55-200-55-73 0-134 22-189 44-56 23-106 45-167 45-83 0-128-17-144-28v-294c-6-17-23-34-39-34z m177 422c73 0 134-22 189-44 56-22 106-44 167-44 83 0 128 16 144 27v461c-33-11-77-22-144-22-72 0-133 22-189 45-55 22-105 44-167 44-83 0-127-17-144-28v-461c33 11 78 22 144 22z" horiz-adv-x="1000" />

<glyph glyph-name="search" unicode="&#xe815;" d="M463 750c-200 0-363-163-363-363 0-201 163-364 363-364 98 0 187 39 253 102 1 2 2 4 4 5 2 2 3 3 5 4 63 66 102 155 102 253 0 200-163 363-364 363z m350-650l163-163c17-17 17-46 0-63-17-17-46-17-63 0l-163 163c-78-64-178-103-287-103-249 0-452 203-452 453 0 249 203 452 452 452 250 0 453-203 453-452 0-109-39-209-103-287z" horiz-adv-x="1000" />

<glyph glyph-name="share" unicode="&#xe816;" d="M711-122c-89 0-161 72-161 161 0 22 6 39 11 55l-261 150c-28-33-72-55-122-55-89 0-161 72-161 161 0 89 72 161 161 161 50 0 94-22 122-55l261 150c-5 16-11 38-11 55 0 89 72 161 161 161s161-72 161-161-72-161-161-161c-50 0-94 22-122 56l-261-150c5-17 11-34 11-56 0-22-6-39-11-56l261-150c28 34 72 56 122 56 89 0 161-72 161-161 0-89-72-161-161-161z m-94 211c-6-17-11-33-11-50 0-56 50-106 105-106s106 50 106 106c0 55-50 105-106 105-39 0-72-16-89-50 0 0 0 0-5-5 5 0 0 0 0 0z m-439 367c-56 0-106-50-106-106s50-106 106-106c39 0 72 23 89 50 0 0 0 0 0 0 0 0 0 0 0 0 11 17 16 39 16 56 0 17-5 39-11 50 0 0 0 0 0 0 0 0 0 0 0 0-22 33-55 56-94 56z m444 150c17-28 50-50 89-50 56 0 106 50 106 105s-50 106-106 106-105-50-105-106c0-17 5-39 16-55-5 5 0 5 0 0 0 0 0 0 0 0z" horiz-adv-x="889" />

<glyph glyph-name="star" unicode="&#xe817;" d="M506 850l156-317 350-51-253-246 59-348-312 164-313-164 60 348-253 246 350 51 156 317z" horiz-adv-x="1067" />

<glyph glyph-name="twitter" unicode="&#xe818;" d="M565 427l354 423h-84l-307-368-245 368h-283l371-556-371-444h84l324 388 259-388h283l-385 577z m-451 358h129l592-873h-128l-593 873z" horiz-adv-x="1000" />

<glyph glyph-name="user" unicode="&#xe819;" d="M345 279l37 16-33 21c-73 47-120 126-120 214 0 141 121 258 271 258 150 0 271-117 271-258 0-42-11-84-32-121-21-37-51-69-87-93l-34-21 37-15c135-56 232-180 240-326h-41c-12 179-166 318-354 318-188 0-342-139-353-318h-42c8 146 105 270 240 325z m384 251c0 123-103 220-229 220-126 0-229-97-229-220 0-123 103-220 229-220 126 0 229 97 229 220z" horiz-adv-x="1000" />

<glyph glyph-name="user-alt" unicode="&#xe81a;" d="M978 350c0 80-20 158-58 228-37 70-92 129-159 173-66 43-143 69-222 76-79 6-159-7-232-39-73-33-136-82-185-145-49-63-81-137-94-216-13-78-6-159 20-234 26-75 71-142 130-196l5-5c88-77 200-120 317-120 117 0 230 43 317 120l6 5c49 45 88 99 115 160 26 61 40 127 40 193z m-900 0c0 69 17 137 49 198 32 61 79 113 136 151 57 39 122 63 191 71 68 8 137-2 201-27 64-26 121-66 166-119 45-52 76-115 91-182 15-67 13-137-5-203-18-67-53-128-100-178-44 69-110 121-187 147 38 26 67 63 83 107 16 43 17 91 3 135-13 44-40 83-77 111-38 27-83 42-129 42-46 0-91-15-128-42-38-28-65-67-78-111-14-44-13-92 3-135 16-44 45-81 84-107-78-26-144-78-188-147-74 78-115 182-115 289z m263 38c0 31 9 62 27 88 17 26 42 47 71 59 29 12 61 15 92 9 31-6 59-21 82-44 22-22 37-50 43-81 7-31 3-63-9-92-12-30-32-54-58-72-27-17-57-27-89-27-42 0-83 17-113 47-29 30-46 70-46 113z m-106-366c27 46 66 83 113 110 46 26 99 40 152 40 53 0 106-14 152-40 47-27 86-64 113-110-75-61-168-94-265-94-97 0-190 33-265 94z" horiz-adv-x="1000" />

<glyph glyph-name="minus" unicode="&#xe81b;" d="M18 239l0 223 893 0 0-223-893 0z" horiz-adv-x="928" />

<glyph glyph-name="warning" unicode="&#xe81c;" d="M139-72c-22 0-45 5-61 16-17 12-34 28-45 45-11 17-16 39-16 61 0 22 5 39 16 61l367 606c0 0 0 0 0 0 11 16 28 27 44 39 34 22 84 22 117 0 17-12 33-23 45-45l366-605c11-17 17-39 17-62 0-22-6-38-17-61-11-16-28-33-44-44-17-11-39-17-61-17h-728z m322 750l-367-606c-5-5-5-16-5-28 0-11 0-16 5-27 6-6 12-17 17-17 6-6 17-6 28-6h728c11 0 16 0 27 6 6 6 17 11 17 17 6 5 6 16 6 27 0 12 0 17-6 28l-361 606c-6 11-11 16-22 22-17 11-34 11-50 0-6-6-11-11-17-22z m45-578c-17 0-34 17-34 33s17 34 34 34h0c16 0 33-17 33-34s-17-33-33-33z m0 172c-17 0-34 17-34 34v172c0 16 17 33 34 33s33-17 33-33v-172c0-17-17-34-33-34z" horiz-adv-x="1000" />

<glyph glyph-name="wishlist" unicode="&#xe81d;" d="M233 749c85 39 200 29 310-85 7-8 18-13 28-13 11 0 22 5 29 13 110 114 225 124 310 85 89-40 153-137 153-252 0-117-48-208-116-285-57-64-125-117-192-169-15-12-31-24-47-36-28-23-53-42-77-56-24-14-43-21-60-21-16 0-35 7-59 21-24 14-49 33-77 56-16 12-32 24-47 36-67 52-135 105-192 169-68 77-116 168-116 285 0 115 64 212 153 252z m338-2c-122 111-260 126-372 75-117-54-199-180-199-325 0-142 59-251 136-338 62-71 138-129 205-181 16-12 30-23 44-35 28-21 57-44 86-62 30-17 64-31 100-31 37 0 71 14 101 31 29 18 58 41 86 62 14 12 28 23 44 35 67 52 142 110 204 181 78 87 137 196 137 338 0 145-82 271-199 325-112 51-250 36-373-75z" horiz-adv-x="1143" />

<glyph glyph-name="write" unicode="&#xe81e;" d="M728-72h-539c-28 0-56 11-78 33-22 22-33 50-33 78v539c0 28 11 55 33 78 22 22 50 33 78 33h272c17 0 33-17 33-33s-16-34-33-34h-272c-11 0-22-5-33-11-6-11-12-22-12-33v-539c0-11 6-22 12-33 5-6 22-12 33-12h539c11 0 22 6 33 12 6 11 11 16 11 33v272c0 17 17 33 34 33s33-16 33-33v-272c0-28-11-56-33-78-17-22-45-33-78-33z m-384 233c-11 0-16 6-22 11-5 6-11 22-11 34l39 155c0 6 6 11 11 17l367 361c44 44 122 44 161 0 22-22 33-50 33-83 0-34-11-62-33-84l-367-366c-5-6-11-6-16-12l-156-38c0 5-6 5-6 5z m67 172l-22-94 94 22 361 361c12 11 17 22 17 34 0 11-5 27-17 33-16 17-50 17-66 0 0 0 0 0 0 0l-367-356z m339 384l0 0 0 0z" horiz-adv-x="1000" />

<glyph glyph-name="angle-down" unicode="&#xe81f;" d="M46 759c25 25 65 25 90 0l682-683 683 683c24 25 65 25 90 0 24-25 24-65 0-90l-728-728c-25-25-65-25-90 0l-727 728c-25 25-25 65 0 90z" horiz-adv-x="1636" />

<glyph glyph-name="angle-right" unicode="&#xe820;" d="M21-129c-28 28-28 73 0 101l378 378-378 378c-28 28-28 73 0 101 28 28 73 28 101 0l429-428c27-28 27-74 0-101l-429-429c-28-28-73-28-101 0z" horiz-adv-x="571" />

<glyph glyph-name="map" unicode="&#xe821;" d="M417 775c-91 0-178-36-242-100-64-64-100-151-100-242 0-132 86-259 178-357 46-48 92-87 126-115 15-12 28-22 38-29 9 7 22 17 38 29 34 28 79 67 125 115 92 98 178 225 178 357 0 91-36 178-100 242-64 64-151 100-241 100z m0-883c-19-28-19-28-19-28l0 0 0 0-1 1c-1 0-2 1-3 2-3 2-8 5-13 9-11 8-26 19-44 33-36 29-84 70-132 121-95 101-197 244-197 403 0 109 43 213 120 289 77 77 180 120 289 120 108 0 212-43 288-120 77-76 120-180 120-289 0-159-102-302-197-403-48-51-96-92-132-121-18-14-33-25-44-33-5-4-9-7-12-9-2-1-3-2-3-2l-1-1-1 0 0 0c0 0 0 0-18 28z m0 0l18-28c-11-8-26-8-37 0l19 28z m0 633c-51 0-92-41-92-92 0-50 41-91 92-91 50 0 91 41 91 91 0 51-41 92-91 92z m-159-92c0 88 71 159 159 159 87 0 158-71 158-159 0-87-71-158-158-158-88 0-159 71-159 158z" horiz-adv-x="833" />

<glyph glyph-name="arrow-left" unicode="&#xe822;" d="M535 823c-19 19-51 19-70 0l-438-438c-19-19-19-51 0-70l438-438c19-19 51-19 70 0 20 20 20 51 0 71l-352 352h1192c28 0 50 22 50 50 0 28-22 50-50 50h-1192l352 352c20 20 20 51 0 71z" horiz-adv-x="1438" />

<glyph glyph-name="arrow-right" unicode="&#xe823;" d="M902 823c20 19 51 19 71 0l437-438c20-19 20-51 0-70l-437-438c-20-19-51-19-71 0-19 20-19 51 0 71l352 352h-1191c-28 0-50 22-50 50 0 28 22 50 50 50h1191l-352 352c-19 20-19 51 0 71z" horiz-adv-x="1438" />

<glyph glyph-name="arrow-up" unicode="&#xe824;" d="M1713-113c-48-49-128-49-176 0l-662 661-662-661c-48-49-128-49-176 0-49 48-49 128 0 176l750 750c48 49 128 49 176 0l750-750c49-48 49-128 0-176z" horiz-adv-x="1750" />

<glyph glyph-name="book" unicode="&#xe825;" d="M111 4l-37 0 37 0z m99 790l0 38 0-38z m662 0l0-37 0 37z m29-29l37 0-37 0z m-37-648c0-20 17-37 37-37 21 0 37 17 37 37h-74z m37-51c21 0 37 17 37 37 0 21-16 37-37 37v-74z m0-198c21 0 37 17 37 38 0 20-16 37-37 37v-75z m-543 766c-20 0-37-17-37-37 0-20 17-37 37-37v74z m296-74c21 0 37 17 37 37 0 20-16 37-37 37v-74z m-506-556v692h-74v-692h74z m0 692c0 16 7 32 18 43l-52 53c-26-26-40-60-40-96h74z m18 43c12 12 28 18 44 18l0 75c-36 0-71-15-96-40l52-53z m44 18h662v75h-662v-75z m662 0c-2 0-4 1-6 3l53 52c-13 13-30 20-47 20l0-75z m-6 3c-1 1-2 3-2 5l74 0c0 18-7 35-19 47l-53-52z m-2 5v-648h74v648h-74z m-654-699h691v74h-691v-74z m0-198h691v75h-691v-75z m0 75c-16 0-32 6-44 18l-52-53c25-25 60-40 96-40v75z m-44 18c-11 11-18 27-18 43l-74 0c0-36 14-70 40-96l52 53z m-18 43c0 17 7 32 18 44l-52 52c-26-25-40-60-40-96h74z m18 44c12 12 28 18 44 18v74c-36 0-71-14-96-40l52-52z m192 512h296v74h-296v-74z" horiz-adv-x="1000" />

<glyph glyph-name="calendar" unicode="&#xe826;" d="M261 836c20 0 36-16 36-36v-54h288v54c0 20 16 36 36 36 20 0 36-16 36-36v-54h99c70 0 126-56 126-126v-630c0-70-56-126-126-126h-630c-70 0-126 56-126 126v630c0 70 56 126 126 126h99v54c0 20 16 36 36 36z m-36-162h-99c-30 0-54-24-54-54v-144h738v144c0 30-24 54-54 54h-99v-54c0-20-16-36-36-36-20 0-36 16-36 36v54h-288v-54c0-20-16-36-36-36-20 0-36 16-36 36v54z m585-270h-738v-414c0-30 24-54 54-54h630c30 0 54 24 54 54v414z" horiz-adv-x="900" />

<glyph glyph-name="camera" unicode="&#xe827;" d="M1153 724h-71v76c0 28-22 50-49 50h-985c-26 0-48-22-48-50v-758c0-28 22-50 48-50h72v-76c0-28 21-50 48-50h984c26 0 48 22 48 50v757c1 28-20 51-47 51z m-1103 77l983-1v-518l-220 159c-8 6-19 6-27 0l-195-138-220 225c-9 8-23 9-32 1l-291-250 2 522z m-3-759v173l305 262 219-223c8-8 22-10 31-3l198 140 233-169v-180c0 0 0-1-1-1l-985 1z m1106-129l-985 2v75h865c27 0 49 23 49 51v633l72-1-1-760z m-410 810c-59 0-106-50-106-110 0-60 47-110 106-110 59 0 106 50 106 110 0 60-48 110-106 110z m0-172c-32 0-59 28-59 62 0 33 27 61 59 61 32 0 59-28 59-61 0-34-27-62-59-62z" horiz-adv-x="1200" />

<glyph glyph-name="cart" unicode="&#xe828;" d="M9 807c0 19 15 34 35 34h173c17 0 31-11 35-28l37-189h711c10 0 20-5 27-13 6-8 9-18 7-28l-69-365c-6-28-21-54-43-71-23-18-50-28-79-27h-422c-28-1-56 9-78 27-22 17-38 43-43 71 0 0 0 0 0 0l-73 363c0 1 0 2 0 3l-38 188h-145c-20 0-35 15-35 35z m294-253l65-323c2-12 9-23 19-30 9-8 21-12 33-12l1 0h423l0 0c12 0 24 4 34 12 9 7 16 18 18 30 0 0 0 0 0 0l62 323h-655z m88-608c-4 0-8-4-8-9 0-5 4-9 8-9 5 0 9 4 9 9 0 5-4 9-9 9z m-78-9c0 43 35 78 78 78 44 0 79-35 79-78 0-43-35-78-79-78-43 0-78 35-78 78z m557 9c-5 0-9-4-9-9 0-5 4-9 9-9 4 0 8 4 8 9 0 5-4 9-8 9z m-79-9c0 43 35 78 79 78 43 0 78-35 78-78 0-43-35-78-78-78-44 0-79 35-79 78z" horiz-adv-x="1043" />

<glyph glyph-name="check" unicode="&#xe829;" d="M1230 778c35-36 35-93 0-129l-728-727c-35-35-93-35-128 0l-331 331c-35 35-35 93 0 128 36 36 93 36 129 0l266-266 663 663c36 35 93 35 129 0z" horiz-adv-x="1273" />

<glyph glyph-name="youtube" unicode="&#xe82a;" d="M1210 754c-35 70-72 83-148 88-75 6-265 8-430 8-165 0-356-2-431-8-76-5-113-18-148-88-35-70-53-191-53-404 0 0 0 0 0 0 0 0 0 0 0 0v0c0-212 18-334 53-403 35-70 72-83 148-89 75-5 266-8 431-8 165 0 355 3 430 8 76 6 113 19 148 89 35 69 53 191 53 403 0 0 0 0 0 0 0 0 0 0 0 0 0 213-18 334-53 404z m-736-677v546l394-273-394-273z" horiz-adv-x="1263" />

<glyph glyph-name="whatsup" unicode="&#xe82b;" d="M472 850h0c-260 0-472-224-472-500 0-109 33-211 90-293l-59-186 182 62c74-53 163-83 259-83 261 0 472 224 472 500 0 276-211 500-472 500z m275-706c-11-34-56-62-93-71-24-5-56-10-165 38-139 61-228 210-235 220-7 10-56 79-56 151 0 71 34 106 48 121 12 13 30 18 48 18 6 0 12 0 16 0 14-1 21-2 30-25 12-29 39-101 43-108 3-7 6-17 2-27-5-10-9-15-16-23-7-9-13-15-20-24-6-8-14-17-6-31 8-15 36-63 77-101 53-50 95-66 111-72 11-5 25-4 33 5 11 12 24 32 37 52 9 14 21 16 34 11 13-5 80-40 94-48 14-7 23-10 26-17 4-6 4-35-8-69z" horiz-adv-x="944" />

<glyph glyph-name="long-arrow-alt-left" unicode="&#xe82c;" d="M219 196l-170 145c-6 5-9 12-9 19 0 7 3 14 9 19l170 145c10 9 25 8 34-3 8-10 7-26-3-34l-120-102 806 0c13 0 24-11 24-25 0-13-11-25-24-25l-806 0 120-102c5-4 8-11 8-19 0-5-2-11-5-15-9-10-24-12-34-3z" horiz-adv-x="1000" />

<glyph glyph-name="long-arrow-alt-right" unicode="&#xe82d;" d="M781 196l170 145c6 5 9 12 9 19 0 7-3 14-9 19l-170 145c-10 9-25 8-34-3-8-10-7-26 4-34l119-102-806 0c-13 0-24-11-24-25 0-13 11-25 24-25l806 0-119-102c-6-4-9-11-9-19 0-5 2-11 5-15 9-10 24-12 34-3z" horiz-adv-x="1000" />

<glyph glyph-name="replay" unicode="&#xe82e;" d="M727 550l-605-607c-13-14-30-20-48-20-19 0-35 6-49 20-14 14-20 30-20 49 0 19 6 35 20 48l607 606h-518c-20 0-36 6-49 19-13 13-20 29-20 49 0 19 7 35 20 48 13 13 29 20 49 20h681c20 0 36-7 49-20 13-13 20-29 20-48v-682c0-19-7-36-20-49-13-13-29-19-49-19-19 0-35 6-48 19-13 13-20 30-20 49v518z" horiz-adv-x="909" />

<glyph glyph-name="play" unicode="&#xe82f;" d="M779 384c27-16 27-55 0-71l-695-424c-28-17-64 3-64 36l0 847c0 32 36 52 64 35l695-423z" horiz-adv-x="833" />

<glyph glyph-name="user-solid" unicode="&#xe832;" d="M909-93c-5 0-9 1-13 3-5 2-9 4-12 8-3 3-6 7-7 11-2 4-3 9-3 14 0 49-10 98-29 143-20 45-48 86-83 120-31 31-67 56-107 74-46-29-100-46-155-47-54 0-107 16-152 45-66-28-122-75-162-135-39-60-60-130-60-202 1-7-2-14-5-20-4-6-10-10-16-13-7-3-14-3-21-2-7 1-13 5-18 10-7 7-10 16-10 25-1 79 20 156 60 224 39 68 96 125 165 164l5 3-5 5c-29 35-48 76-57 120-9 44-7 90 5 133 12 43 35 83 65 116 31 33 69 57 112 72 64 23 133 22 197-3 63-25 115-72 146-132 21-40 32-84 32-129 0-65-23-128-64-178l-4-5 5-3c35-20 68-44 97-72 41-41 74-90 96-144 22-54 34-112 33-170 0-9-3-18-10-25-7-6-16-10-25-10z m-409 817c-42 0-82-12-117-35-34-23-61-56-77-95-16-38-20-80-12-121 8-41 28-78 57-108 30-29 67-49 108-57 41-8 83-4 121 12 39 16 72 43 95 77 23 35 35 75 35 117 0 28-5 55-16 80-10 26-26 49-45 69-40 39-93 61-149 61z" horiz-adv-x="1000" />

<glyph glyph-name="bookmark" unicode="&#xe834;" d="M161 747c-15 0-30-6-41-17-11-11-17-26-17-41v-684l273 194c13 9 30 9 43 0l272-194v684c0 15-6 30-17 41-11 11-25 17-41 17h-472z m-93 35c25 24 58 38 93 38h472c35 0 69-14 93-38 25-25 39-58 39-93v-756c0-13-8-26-20-32-13-7-27-6-38 2l-310 221-309-221c-11-8-26-9-38-2-12 6-20 19-20 32v756c0 35 14 68 38 93z" horiz-adv-x="800" />

<glyph glyph-name="reload" unicode="&#xe835;" d="M438 806c73 23 150 25 224 7 74-18 142-55 198-109 57-53 99-121 124-196 7-20-4-41-24-48-19-6-41 4-47 24-21 64-57 121-104 166-47 45-104 76-165 90-61 15-124 13-184-6-60-18-115-53-159-100l-1-1-147-148h182c21 0 38-17 38-38 0-20-17-37-38-37h-272c-21 0-38 17-38 37v292c0 21 17 38 38 38 20 0 37-17 37-38v-201l146 147c54 57 119 99 192 121z m314-553c0 21 17 37 38 37h273c20 0 37-16 37-37v-292c0-21-17-38-37-38-21 0-38 17-38 38v201l-146-147c-53-57-119-99-192-121-73-23-150-25-224-7-74 18-142 55-198 109-57 53-99 121-124 196-6 20 4 41 24 48 20 6 41-4 47-24 21-64 57-121 104-166 47-44 104-76 165-90 61-15 124-13 184 6 60 18 115 53 159 100l1 1 147 148h-182c-21 0-38 17-38 38z" horiz-adv-x="1125" />

<glyph glyph-name="youtube-light" unicode="&#xe836;" d="M1333 354c0 4 0 8 0 12 0 13 0 27-1 41-1 43-3 86-6 126-5 56-11 102-20 137-9 36-28 70-54 96-25 27-57 46-92 56-42 11-125 19-241 23-55 2-114 4-173 4-21 1-40 1-57 1h-44c-17 0-37 0-57-1-59 0-118-2-174-4-116-4-198-12-240-23-35-10-67-29-93-56-26-26-44-60-54-96-9-35-15-81-20-137-3-40-5-83-6-126-1-14-1-28-1-41 0-4 0-8 0-12v-8c0-4 0-7 0-12 0-12 1-26 1-41 1-43 3-86 6-126 5-56 12-102 20-137 19-74 75-132 147-152 42-11 124-19 240-23 56-2 115-4 174-4 20-1 40-1 57-1h44c17 0 36 0 57 1 59 0 118 2 173 4 116 4 199 12 241 23 71 20 127 78 146 152 9 35 15 81 20 137 3 40 5 83 6 126 1 15 1 29 1 41 0 5 0 8 0 12v8z m-107-8c0-3 0-6 0-11 0-12 0-25-1-39-1-41-3-82-6-120-4-50-10-90-17-117-9-36-36-64-70-74-31-8-110-15-217-19-54-2-113-4-171-5-20 0-39 0-56 0h-43l-56 0c-58 1-116 3-170 5-107 4-186 11-217 19-35 10-62 38-71 74-7 27-13 67-17 117-3 38-5 79-6 120 0 14-1 28-1 39 0 5 0 8 0 11v8c0 3 0 7 0 11 0 12 1 25 1 39 1 41 3 82 6 120 4 50 10 90 17 118 9 35 36 63 71 73 31 8 110 15 217 19 54 2 112 4 170 5 21 0 39 0 56 0h43l56 0c58-1 117-3 171-5 107-4 186-11 217-19 34-10 61-38 70-73 7-28 13-68 17-118 3-38 5-79 6-120 1-14 1-27 1-39 0-4 0-8 0-11v-8z m-692-202l346 208-346 204v-412z" horiz-adv-x="1333" />

<glyph glyph-name="tags" unicode="&#xe838;" d="M24 791c0 20 15 36 35 36h460c10 0 19-4 25-11l396-395c23-24 37-56 37-90 0-34-14-66-37-90l0 0-330-330c-12-12-26-21-42-28-15-6-32-10-49-10-16 0-33 4-48 10-16 7-30 16-42 28 0 0 0 0 0 0l-395 395c-7 7-10 15-10 25v460z m70-35v-411l385-384c6-6 12-10 19-13 7-2 14-4 21-4 8 0 15 2 22 4 7 3 13 7 19 13l330 330c0 0 0 0 0 0 10 10 16 25 16 40 0 15-6 29-16 40 0 0 0 0 0 0l-385 385h-411z m160-195c0 20 16 35 35 35h1c19 0 35-15 35-35 0-19-16-35-35-35h-1c-19 0-35 16-35 35z" horiz-adv-x="1000" />

<glyph glyph-name="angle-left" unicode="&#xe83a;" d="M584 827c27-27 27-70 0-97l-380-380 380-380c27-27 27-70 0-97-27-27-70-27-97 0l-428 429c-27 26-27 70 0 97l428 428c27 27 70 27 97 0z" horiz-adv-x="643" />

<glyph glyph-name="air-freight" unicode="&#xe83d;" d="M471 347c-7-8-7-20 0-28 8-7 20-7 28 0 7 8 7 20 0 28-8 7-20 7-28 0z m311 445c-34-26-43-40-162-157l-71 11 33 33c23 23 23 60 0 83-23 23-60 23-83 0l-93-93-323 53c-20 4-42-3-57-18-29-29-25-77 8-101l322-233-60-60c-21-21-43-50-65-85l-150 44c-22 7-46 0-62-16-28-28-24-74 8-97l123-85c-21-47-34-82-35-83-2-7-1-16 5-21 5-6 13-7 20-5 2 1 36 14 84 36l85-124c22-32 68-36 96-8 17 16 23 40 16 62l-44 151c36 22 64 44 85 64l60 61 233-323c24-33 71-36 100-8 15 15 22 37 18 58l-52 323 92 93c23 23 23 60 0 83-23 23-60 23-83 0l-32-33-12 72c118 119 131 128 157 161 0 0 0 0 0 0 60 79 74 158 35 197-39 39-118 25-196-35z m-256-58c8 8 20 8 28 0 8-7 8-20 0-27l-53-53-47 8 72 72z m-469-99c-13 10-15 29-3 41 6 6 15 9 23 7l509-83-202-202-327 237z m-11-410c6 7 16 9 24 7l140-42c-14-25-28-53-43-83l-118 82c-12 8-13 26-3 36z m332-332c-11-10-29-9-37 4l-82 117c31 15 58 29 83 44l42-141c2-8 0-18-6-24z m480 509c8 8 20 8 27 0 8-7 8-20 0-27l-72-73-8 48 53 52z m-23-478c1-8-2-17-8-23-11-12-31-10-40 3l-237 328 202 202 83-510z m-401 247c-22-21-53-45-94-69-52-32-115-62-171-85 25 57 55 121 87 174 24 39 47 70 67 91 478 477 449 452 478 475 32 2 61-7 80-27 20-20 30-48 27-80-23-29 2-1-474-479z m508 530c-6 22-17 41-33 57-16 15-35 27-56 33 28 14 75 30 97 8 18-17 13-55-8-98z m-360-243l-56-56c-7-7-7-20 0-27 8-8 20-8 28 0l55 55c8 8 8 20 0 28-7 7-20 7-27 0z m110 110l-55-55c-8-8-8-20 0-28 8-7 20-7 28 0l55 56c7 7 7 20 0 27-8 8-20 8-28 0z" horiz-adv-x="1000" />

<glyph glyph-name="gps" unicode="&#xe841;" d="M500 621c-150 0-271-121-271-271 0-150 121-271 271-271 150 0 271 121 271 271 0 150-121 271-271 271z m-354-271c0 196 158 354 354 354 196 0 354-158 354-354 0-196-158-354-354-354-196 0-354 158-354 354z m354 83c-46 0-83-37-83-83 0-46 37-83 83-83 46 0 83 37 83 83 0 46-37 83-83 83z m-167-83c0 92 75 167 167 167 92 0 167-75 167-167 0-92-75-167-167-167-92 0-167 75-167 167z m167 458c23 0 42-18 42-41v-84c0-23-19-41-42-41-23 0-42 18-42 41v84c0 23 19 41 42 41z m-458-458c0 23 18 42 41 42h84c23 0 41-19 41-42 0-23-18-42-41-42h-84c-23 0-41 19-41 42z m458-292c23 0 42-18 42-41v-84c0-23-19-41-42-41-23 0-42 18-42 41v84c0 23 19 41 42 41z m292 292c0 23 18 42 41 42h84c23 0 41-19 41-42 0-23-18-42-41-42h-84c-23 0-41 19-41 42z" horiz-adv-x="1000" />

<glyph glyph-name="linked" unicode="&#xe842;" d="M217-150h-202v649h202v-649z m-102 736c-63 0-115 54-115 119 0 89 96 145 174 100 37-20 58-59 58-100 0-65-52-119-117-119z m855-736h-200v315c0 76-2 171-106 171-104 0-119-80-119-165v-321h-202v649h193v-89h2c28 50 94 104 191 104 204 0 243-134 243-308v-356h-2z" horiz-adv-x="1000" />

<glyph glyph-name="truck-1" unicode="&#xe843;" d="M1226 466l-37 75c-14 27-40 43-70 43h-218v183c0 43-35 78-78 78h-745c-43 0-78-35-78-78v-677c0-43 35-78 78-78h78c0-41 15-77 40-105h-170c-14 0-26-11-26-26 0-14 12-26 26-26h1281c15 0 26 12 26 26 0 15-11 26-26 26h-66c25 28 40 64 40 105 0 1 0 2 0 4 31 11 52 40 52 74v144c0 30 6 2-107 232z m-39-38l78-156h-260v156h182z m-1135-208h52v-52h-52v52z m261-313c-58 0-105 47-105 105 0 7 1 14 2 20 10 49 53 84 103 84 49 0 92-35 102-84 0 0 0 0 0 0 1-6 2-13 2-20 0-58-47-105-104-105z m0 261c-67 0-126-43-148-104h-87c-14 0-26 11-26 26v26h78c15 0 26 11 26 26v104c0 14-11 26-26 26h-78v495c0 14 12 26 26 26h745c14 0 26-12 26-26 0-20 0-641 0-703h-389c-22 61-81 104-147 104z m116-261c25 28 40 64 40 105 20 0 491 0 500 0 0-41 15-77 40-105h-580z m696 0c-57 0-104 47-104 105 0 7 1 14 2 20 10 49 53 84 102 84 49 0 92-35 102-84 0 0 0 0 0 0 1-6 2-13 2-20 0-58-47-105-104-105z m156 183c0-9-4-17-11-21-23 58-80 99-145 99-67 0-126-43-147-104h-77v468h218c10 0 19-5 23-14l19-38h-182c-14 0-26-11-26-26v-208c0-14 12-26 26-26h302v-130z" horiz-adv-x="1333" />

<glyph glyph-name="instragram" unicode="&#xe844;" d="M438 550c123 0 224-102 224-225 0-125-101-225-224-225-125 0-225 100-225 225 0 123 100 225 225 225z m0-371c80 0 144 64 144 146 0 80-64 145-144 145-82 0-147-65-147-145 0-82 66-146 147-146z m285 378c0 30-24 53-53 53-29 0-53-23-53-53 0-29 24-52 53-52 29 0 53 23 53 52z m148-52c4-73 4-289 0-362-4-70-19-130-70-183-51-51-113-67-184-71-72-4-289-4-361 0-70 4-131 20-184 71-50 53-66 113-70 183-4 73-4 289 0 362 4 70 20 133 70 183 53 51 114 67 184 71 72 4 289 4 361 0 71-4 133-20 184-71 51-50 66-113 70-183z m-94-438c24 57 18 194 18 258 0 63 6 199-18 258-15 37-45 68-82 82-58 23-195 17-257 17-65 0-202 6-258-17-39-16-69-45-84-82-24-59-18-195-18-258 0-64-6-201 18-258 15-39 45-68 84-84 56-23 193-17 258-17 62 0 199-6 257 17 37 16 69 45 82 84z" horiz-adv-x="900" />

<glyph glyph-name="circle-check" unicode="&#xe845;" d="M0 363c0 261 211 474 474 474 261 0 473-213 473-474 0-263-212-474-473-474-263 0-474 211-474 474z m687 82c20 20 20 51 0 72-21 20-52 20-73 0l-199-200-84 81c-20 21-52 21-72 0-20-20-20-51 0-72l119-118c20-21 51-21 72 0l237 237z" horiz-adv-x="947" />

<glyph glyph-name="convert-3d-cube" unicode="&#xe846;" d="M917 263c20 0 37-17 37-38 0-182-147-329-329-329-13 0-26 7-33 19-6 12-6 26 1 38l44 73c10 17 33 23 51 12 18-10 24-33 13-51l-3-6c105 31 181 129 181 244 0 21 17 38 38 38z m-614 456c-106-31-182-129-182-244 0-21-17-37-38-37-20 0-37 16-37 37 0 182 147 329 329 329 14 0 26-7 33-19 6-12 6-26-1-38l-44-72c-10-18-33-24-51-13-18 10-24 33-13 51l4 6z m235-36c11 18 34 24 52 14l147-85 145 85c18 10 41 4 51-14 11-18 5-41-13-51l-164-96c-12-6-26-6-38 0l-166 96c-18 11-24 33-14 51z m199-76c20 0 37-17 37-38v-170c0-20-17-37-37-37-21 0-38 17-38 37v170c0 21 17 38 38 38z m0 197c18 0 39-4 57-13l0 0 100-56c18-10 33-27 43-43 10-17 17-38 17-59v-106c0-22-7-42-17-59-10-17-25-34-43-44l-100-55c0 0 0 0 0 0-18-10-39-14-58-14-18 0-39 4-57 14l-100 55c-18 10-33 27-43 44-10 17-17 38-17 59v106c0 21 7 42 17 59 10 16 25 33 43 43l101 56c17 9 38 13 57 13z m-22-79l-99-55c0 0 0 0 0 0-4-2-10-8-15-17-5-8-7-16-7-20v-106c0-5 2-13 7-21 5-9 10-14 15-16l0 0 100-56c4-2 11-4 20-4 10 0 17 2 21 4l0 0 100 55c0 0 0 0 0 0 4 3 10 8 15 17 5 8 7 16 7 21v106c0 4-2 12-7 21-5 8-10 13-14 16l-1 0-100 55c0 0 0 0 0 0-3 2-11 4-20 4-10 0-17-2-22-4z m-649-500c10 18 33 24 51 14l146-85 146 84c18 11 41 5 51-13 11-18 5-41-13-52l-165-95c-11-7-26-7-37 0l-166 96c-18 10-24 33-13 51z m197-77c21 0 38-16 38-37v-170c0-21-17-38-38-38-20 0-37 17-37 38v170c0 21 17 37 37 37z m0 198c19 0 40-4 57-13l1-1 100-55c18-10 33-27 43-44 10-17 17-38 17-59v-106c0-21-7-42-17-59-10-17-25-33-43-43l-100-56c0 0 0 0 0 0-18-10-39-14-58-14-18 0-39 4-57 14l-99 55c-19 11-34 27-44 44-10 17-17 38-17 59v106c0 22 7 42 17 59 10 17 25 34 43 44l101 56c17 9 38 13 56 13z m-20-79l-100-56c0 0 0 0 0 0-4-2-10-7-15-16-5-8-7-16-7-21v-106c0-4 2-12 7-21 5-8 11-13 15-16l0 0 100-56c4-2 11-4 20-4 10 0 17 2 21 5l0 0 100 55c0 0 0 0 0 0 4 2 10 8 15 16 5 9 7 17 7 21v106c0 5-2 13-7 21-5 9-10 14-14 16l-1 0-99 56c-4 2-12 4-22 4-9 0-17-2-20-4z" horiz-adv-x="1000" />

<glyph glyph-name="routing" unicode="&#xe847;" d="M228 729c-49 0-93-27-105-79l0 0c-15-64 25-122 70-165 19-19 51-19 70 0 45 43 85 101 70 165l0 0c-12 52-56 79-105 79z m178-62c-21 92-102 137-178 137-76 0-157-45-178-137m356 0c25-106-43-190-91-237l0 0c-49-46-126-45-174 0l0 1 0 0c-48 46-116 130-91 236m720-438c-49 0-94-28-105-79l0 0c-15-64 25-122 70-165 20-19 51-19 71 0l0 0c45 43 85 101 70 165l0 0c-11 51-56 79-106 79z m180-62c-22 93-103 137-180 137-76 0-157-44-179-137m359 0c24-106-44-191-92-237-49-46-126-45-174 0l-1 0c-48 46-116 131-92 237m-128 475c0 20 16 37 37 37h112c111 0 163-138 79-212l-333-291 0 0c-31-28-12-80 30-80h112c21 0 38-17 38-38 0-20-17-37-38-37h-112c-111 0-163 138-79 211 0 0 0 0 0 0l333 292c0 0 0 0 0 0 32 28 12 80-30 80h-112c-21 0-37 17-37 38z m-272-21c0 21 17 37 38 37h0c21 0 38-16 38-37 0-21-17-38-38-38h0c-21 0-38 17-38 38z m542-500c0 21 17 37 37 37h1c21 0 37-16 37-37 0-21-16-38-37-38h-1c-20 0-37 17-37 38z" horiz-adv-x="1000" />

<glyph glyph-name="pricing" unicode="&#xe848;" d="M682 417v189c0 6-3 11-6 15l-213 223c-4 4-9 6-15 6h-336c-62 0-112-51-112-113v-636c0-62 50-112 112-112h265c51-83 142-139 246-139 158 0 287 128 287 287 0 138-99 253-228 280z m-213 360l142-150h-92c-27 0-50 23-50 50v100z m-357-746c-39 0-70 31-70 70v636c0 39 31 71 70 71h315v-131c0-50 41-92 92-92h121v-162c-6 0-11 0-17 0-73 0-139-28-190-71h-265c-11 0-20-10-20-21 0-12 9-21 20-21h226c-14-21-27-42-36-65h-190c-11 0-20-9-20-20 0-12 9-21 20-21h176c-5-21-8-44-8-67 0-38 8-75 21-106h-245v0z m511-140c-135 0-245 110-245 245 0 135 110 245 245 245 135 0 245-110 245-245 0-135-110-245-245-245z m-455 523h212c11 0 20 10 20 21 0 12-9 21-20 21h-212c-11 0-20-9-20-21 0-11 9-21 20-21z m448-149c2 0 3-1 5-1 2 0 4 1 6 1 27-2 49-25 49-53 0-11 9-21 21-21 11 0 21 10 21 21 0 46-33 84-76 93v14c0 11-9 20-21 20-11 0-21-9-21-20v-15c-41-10-72-47-72-92 0-52 42-95 95-95 29 0 53-24 53-53 0-30-24-54-53-54-30 0-54 24-54 53 0 12-9 21-21 21-11 0-20-9-20-21 0-44 31-82 72-92v-21c0-12 10-21 21-21 12 0 21 9 21 21v20c43 9 76 48 76 94 0 52-43 95-95 95-30 0-54 24-54 53 0 27 21 50 47 53z" horiz-adv-x="927" />

<glyph glyph-name="tracking" unicode="&#xe849;" d="M535 172h-298c-16 0-31-6-43-17-11-12-18-27-18-44 0-16 7-31 18-43 12-11 27-18 43-18h298c17 0 32 7 43 18 12 12 18 27 18 43 0 17-6 32-18 44-11 11-26 17-43 17z m0-81h-298c-5 0-10 2-14 6-4 4-6 9-6 14 0 6 2 11 6 15 4 4 9 6 14 6h298c6 0 11-2 15-6 4-4 6-9 6-15 0-5-2-10-6-14-4-4-9-6-15-6z m-298 122h217c16 0 32 7 43 18 12 11 18 27 18 43 0 16-6 32-18 43-11 12-27 18-43 18h-217c-16 0-31-6-43-18-11-11-18-27-18-43 0-16 7-32 18-43 12-11 27-18 43-18z m0 81h217c5 0 11-2 14-6 4-3 6-9 6-14 0-5-2-10-6-14-3-4-9-6-14-6h-217c-5 0-10 2-14 6-4 4-6 9-6 14 0 5 2 11 6 14 4 4 9 6 14 6z m1111 5l2 3c18 21 26 48 23 75-2 27-15 52-36 69-20 17-47 26-74 24-27-3-52-15-70-36l-4-5c-24 7-48 12-72 14v204h47c6 0 11 2 15 6 3 4 6 9 6 14v163c0 5-3 10-6 14-4 4-9 6-15 6h-1144c-5 0-10-2-14-6-4-4-6-9-6-14l0-163c0-5 2-10 6-14 4-4 9-6 14-6h48v-630c0-20 8-39 22-53 14-14 33-22 52-22h753c50-49 117-78 187-81 71-4 140 19 195 62 55 44 93 106 106 175 13 69 0 141-35 201z m-36 116c11-9 19-23 21-38 2-15-1-30-9-43-26 33-59 59-96 78 11 11 26 17 41 18 16 0 31-5 43-15z m-168 272h-423v122h423v-122z m-640 122h176v-318l-76 57c-3 2-7 4-12 4-4 0-8-2-12-4l-76-57v318z m-463 0h423v-122h-423v122z m67-792v630h356v-197c0-4 1-7 3-10 2-4 4-6 8-8 3-2 7-2 11-2 3 0 7 2 10 4l96 72 97-72c3-2 6-4 10-4 4 0 7 0 11 2 3 2 6 4 8 8 2 3 3 6 3 10v197h355v-204c-24-2-49-7-72-14l-5 5c-17 21-42 34-69 36-27 3-54-6-75-23-21-18-34-43-36-70-2-27 6-54 24-75l2-3c-28-48-42-104-40-160 3-56 22-111 55-156h-718c-9 0-17 3-24 10-6 6-10 15-10 24z m761 317c-8 13-11 29-9 44 2 15 10 29 22 38 12 10 27 15 42 14 15-1 30-7 41-18-37-19-70-45-96-78z m227-433c-49 0-98 15-139 43-41 27-73 66-92 112-19 46-24 96-14 145 9 49 33 93 68 128 35 35 80 59 129 69 48 10 99 5 144-14 46-19 85-51 113-93 27-41 42-89 42-139 0-66-26-130-73-177-47-47-111-74-178-74z m21 260v127c0 5-2 10-6 14-4 4-9 6-15 6-5 0-10-2-14-6-4-4-6-9-6-14v-136c0-3 1-5 2-8 1-2 2-4 4-6l96-96c2-2 4-3 6-4 3-1 6-2 8-2 3 0 6 1 8 2 2 1 5 2 7 4 2 2 3 4 4 7 1 2 2 5 2 7 0 3-1 6-2 8-1 3-3 5-4 7l-90 90z" horiz-adv-x="1388" />

<glyph glyph-name="storage" unicode="&#xe84a;" d="M16-150h47c8 0 15 7 15 16v31h703v-31c0-9 7-16 16-16h47c8 0 15 7 15 16v945c0 22-17 39-39 39-21 0-39-17-39-39v-242h-47v218c0 9-7 16-15 16h-250c-9 0-16-7-16-16v-218h-47v218c0 9-7 16-15 16h-250c-9 0-16-7-16-16v-218h-47v242c0 22-17 39-39 39-21 0-39-17-39-39l0-945c0-9 7-16 16-16z m796 961c0 4 4 8 8 8 5 0 8-4 8-8v-930h-16v930z m-234-39h31v-16h-31v16z m-94 0h63v-32c0-8 7-15 15-15h63c9 0 16 7 16 15v32h62v-203h-219v203z m-234 0h31v-16h-31v16z m-94 0h63v-32c0-8 7-15 15-15h63c9 0 15 7 15 15v32h63v-203h-219v203z m-78-234h63 250 78 250 62v-16h-703v16z m0-47h703v-219h-47v172c0 9-7 16-15 16h-578c-9 0-16-7-16-16v-172h-47v219z m313-109h78c8 0 15 7 15 15v31h219v-156h-547v156h219v-31c0-8 7-15 16-15z m15 31v15h47v-15h-47z m-328-172h63 578 62v-16h-703v16z m0-47h703v-219h-47v188c0 8-7 15-15 15h-219c-9 0-16-7-16-15v-188h-46v141c0 8-7 15-16 15h-109c0 0 0 1 0 1-1 0-1-1-1-1h-62c0 0 0 1 0 1 0 0 0-1 0-1h-109c-9 0-16-7-16-15v-141h-47v219z m500-94h63c8 0 15 7 15 16v31h47v-172h-187v172h46v-31c0-9 7-16 16-16z m16 31v16h31v-16h-31z m-344-78h63c8 0 15 7 15 16v31h78v-125h-250v125h78v-31c0-9 7-16 16-16z m16 32v15h31v-15h-31z m-188-141h63 281 78 219 62v-16h-703v16z m-39 875c4 0 8-4 8-8v-930h-15l-1 930c0 4 4 8 8 8z" horiz-adv-x="873" />

<glyph glyph-name="security" unicode="&#xe84e;" d="M254 510c-28 57-48 120-59 184-2 7 2 14 9 18l266 136c5 3 11 3 16 0l266-136c7-4 10-11 9-18-11-65-32-128-60-185l162-75c3-1 6-3 8-6l74-93c9-13 13-29 9-44-4-16-15-28-29-35l-4-1v-176c0-20-12-39-31-47-86-36-406-170-406-170-4-2-9-2-13 0 0 0-320 134-405 170-19 8-32 27-32 47v178l-3 2c-15 6-26 19-29 34-4 15-1 32 9 44 29 38 72 92 72 92 0 0 0 0 0 0 2 3 5 5 8 7l163 74z m633-270l-277-121c-22-9-47-3-61 16l-55 70 1-302 382 161c6 2 10 8 10 15v161z m-819 2v-163c0-7 4-13 11-15l382-161-1 301-53-67c-14-19-39-25-60-16l-279 121z m437 4l71-90c4-6 13-8 20-5l315 137c5 2 9 6 10 11 1 5 0 11-3 15l-65 83-348-151z m-55 0l-348 151-64-81c-3-4-5-10-3-15 1-5 5-9 9-11l316-137c7-3 16-1 20 5l70 88z m-180 234l-133-61 340-148 339 147-131 60c-49-87-117-158-200-194l-3 0-3-1h-3l-3 1-2 0c-83 37-152 108-201 196z m208-161c128 59 216 210 247 368l-247 127-248-127c31-158 119-309 248-368z m0 446c47 0 84-38 84-85v-18h1c14 0 27-5 36-15 10-9 15-22 15-36v-119c0-14-5-27-15-36-9-10-22-15-36-15h-170c-14 0-27 5-37 15-9 9-15 22-15 36 0 34 0 85 0 119 0 14 6 27 15 36 10 10 23 15 37 15h0v18c0 47 38 84 84 85h1z m17-290h68c5 0 9 1 12 5 3 3 5 7 5 12v119c0 5-2 9-5 12-3 3-7 5-12 5h-170c-5 0-9-2-13-5-3-3-5-7-5-12v-119c0-5 2-9 5-12 4-4 8-5 13-5h68v14c-26 8-45 32-45 60 0 34 27 62 62 62 34 0 62-28 62-62 0-28-19-52-45-60v-14z m-17 102c15 0 28-12 28-28 0-15-13-28-28-28-16 0-28 13-28 28 0 16 12 28 28 28z m0 154c-28 0-51-23-51-51v-18h101v18c0 28-22 51-50 51z" horiz-adv-x="964" />

<glyph glyph-name="delivery" unicode="&#xe84f;" d="M1265 611l-429 236c-8 4-17 4-24 0l-162-89c-3-1-7-3-10-5l-258-142c-8-4-13-13-13-22v-51h-288c-13 0-24-11-24-25 0-13 11-25 24-25h288v-89h-143c-13 0-25-12-25-25 0-14 12-25 25-25h143v-130h-209c-14 0-25-11-25-25 0-14 11-25 25-25h209v-51c0-9 5-18 13-22l430-236c3-2 7-3 12-3 4 0 8 1 12 3l429 236c8 4 13 13 13 22v112c0 14-11 25-25 25-14 0-25-11-25-25v-97l-379-209v415l120 66v-105c0-9 5-17 12-21 4-3 9-4 13-4 4 0 8 1 12 3l92 51c8 4 13 13 13 22v132l117 64v-118c0-13 11-25 25-25 14 0 25 12 25 25v160c0 9-5 18-13 22z m-466-687l-380 209v414l380-208v-415z m25 458l-378 207 119 66 377-208-118-65z m170 94l-377 207 41 22 377-207-41-22z m67-111l-42-23v91l42 23v-91z m26 162l-378 207 115 63 377-208-114-62z m166-172c-7 0-13-3-18-8-4-4-7-11-7-17 0-7 3-13 7-18 5-5 11-7 18-7 6 0 13 2 18 7 4 5 7 11 7 18 0 6-3 13-7 17-5 5-12 8-18 8z m-1192-136h-36c-14 0-25-11-25-25 0-14 11-25 25-25h36c14 0 25 11 25 25 0 14-11 25-25 25z m90 155c0 6-2 13-7 17-4 5-11 8-17 8-7 0-13-3-18-8-5-4-7-11-7-17 0-7 2-13 7-18 5-5 11-7 18-7 6 0 13 2 17 7 5 5 7 11 7 18z" horiz-adv-x="1278" />

<glyph glyph-name="earphones" unicode="&#xe850;" d="M946 424c-4 112-50 217-129 296-84 84-195 130-313 130-239 0-434-190-442-426-36-17-62-53-62-95v-117c0-57 47-104 104-104 37 0 67 30 67 67v190c0 35-26 64-60 67 12 206 184 370 393 370 105 0 204-41 279-116 68-68 108-157 114-254-34-4-60-32-60-67v-190c0-35 27-63 61-66v-48c0-55-44-99-98-99h-73c-3 11-9 20-17 28-13 14-32 21-51 21h-75c-11 0-21-2-31-6-25-12-42-38-42-67 0-19 8-38 21-51 14-14 32-22 52-22h75c31 0 58 20 68 49h73c81 0 146 66 146 147v56c36 16 62 53 62 95v117c0 42-26 78-62 95z m-823-59v-190c0-10-9-19-19-19-31 0-56 25-56 56v117c0 30 25 55 56 55 10 0 19-8 19-19z m560-432c-2-11-13-19-24-19h-75c-7 0-13 2-18 7-4 4-7 11-7 17 0 10 6 19 15 23 3 1 6 2 10 2h75c6 0 13-3 17-7 5-5 7-11 7-18 0-2 0-3 0-5z m277 279c0-31-25-56-56-56-11 0-19 9-19 19v190c0 11 8 19 19 19 31 0 56-25 56-55v-117z m-300-8c56 0 102 45 102 102v208c0 27-11 53-30 72-19 19-45 30-72 30h-312c-56 0-102-46-102-102v-208c0-57 46-102 102-102h2v-54c0-21 12-39 31-47 6-2 12-3 19-3 13 0 26 5 35 14l90 90h135z m-162 41l-97-97c-1 0-1-1-2 0-1 0-1 1-1 2v78c0 13-11 24-24 24h-26c-30 0-54 24-54 54v208c0 30 24 54 54 54h312c14 0 28-6 38-16 10-10 16-24 16-38v-208c0-30-24-54-54-54h-145c-7 0-13-3-17-7z m-111 197c-20 0-36-16-36-36 0-20 16-36 36-36 19 0 35 16 35 36 0 20-16 36-35 36z m117 0c-20 0-36-16-36-36 0-20 16-36 36-36 20 0 35 16 35 36 0 20-15 36-35 36z m117 0c-20 0-36-16-36-36 0-20 16-36 36-36 20 0 36 16 36 36 0 20-16 36-36 36z" horiz-adv-x="1018" />

<glyph glyph-name="star-1" unicode="&#xe851;" d="M990 528c49-8 68-68 32-104l-197-193 47-272c7-48-45-86-88-63l-244 129-246-129c-43-23-95 15-88 63l47 272-197 193c-35 36-17 96 32 104l276 39 122 249c22 45 86 43 107 0l123-249 274-39z m-262-265l189 184-261 37-116 237-118-237-261-37 190-184-45-259 234 122 233-122-45 259z" horiz-adv-x="1040" />

<glyph glyph-name="quote" unicode="&#xe852;" d="M23 332c0 22 18 40 40 40h300c102 0 173-79 173-173v-167c0-94-71-173-173-173h-166c-96 0-174 78-174 173v300z m80-40v-260c0-51 42-93 94-93h166c56 0 93 41 93 93v167c0 52-37 93-93 93h-260z m229 529c11-19 5-44-14-55-89-52-138-87-169-141-31-56-46-137-46-293 0-22-18-40-40-40-22 0-40 18-40 40 0 157 15 257 57 332 42 75 110 119 197 171 19 11 44 5 55-14z m292-489c0 22 18 40 40 40h300c102 0 173-79 173-173v-167c0-94-71-173-173-173h-166c-96 0-174 78-174 173v300z m80-40v-260c0-51 42-93 94-93h166c56 0 93 41 93 93v167c0 52-37 93-93 93h-260z m229 529c11-19 5-44-14-55-89-52-138-87-169-141-31-56-46-137-46-293 0-22-18-40-40-40-22 0-40 18-40 40 0 157 15 257 57 332 42 75 110 119 197 171 19 11 43 5 55-14z" horiz-adv-x="1160" />

<glyph glyph-name="phone-fill" unicode="&#xe853;" d="M907 140l-42-179c-6-27-27-45-54-45-447 2-811 366-811 814 0 26 16 48 43 53l179 43c25 5 51-9 62-32l84-194c8-23 3-50-16-64l-96-78c60-123 160-222 284-282l78 96c14 17 41 24 64 16l193-84c23-12 38-39 32-64z" horiz-adv-x="909" />

<glyph glyph-name="paper-plane" unicode="&#xe854;" d="M935 804c31 18 70-7 63-43l-130-779c-3-29-34-45-59-34l-224 96-115-141c-25-31-76-15-76 29v146l433 528c9 11-5 24-14 14l-518-456-193 81c-32 13-36 60-3 78l836 481z" horiz-adv-x="1000" />

<glyph glyph-name="star-fill" unicode="&#xe855;" d="M467 779c22 43 83 42 103 0l119-240 263-38c47-7 65-64 31-99l-190-185 45-262c8-47-43-83-84-61l-235 124-236-124c-41-22-92 14-85 61l45 262-189 185c-34 35-16 92 31 99l265 38 117 240z" horiz-adv-x="1038" />

<glyph glyph-name="play-border" unicode="&#xe857;" d="M806 456l0 0c71-44 71-147 0-190l0-1-640-378c0 0 0 0 0 0-74-44-166 10-166 97v756c0 46 25 80 58 97 33 17 74 17 108-3l0 0 640-378z m-652-549l640 378c56 35 56 117 0 151l-640 378c-53 31-131 0-131-74v-756c0-69 73-111 131-77z" horiz-adv-x="860" />

<glyph glyph-name="home" unicode="&#xe858;" d="M642 578c4 4 11 6 17 6 4 0 11-2 15-6l394-322v-349c0-19-17-34-34-34h-241c-17 0-34 15-34 34v204c0 17-15 35-34 35h-136c-17 0-34-18-34-35v-204c0-19-15-34-32-34h-239c-19 0-34 15-34 34v347l392 324z m620-219c7-5 11-13 11-20 0-6-2-12-7-17l-55-66c-4-6-11-8-19-8-7 0-13 2-17 6l-501 411c-4 5-11 7-15 7-6 0-13-2-17-7l-501-411c-4-4-10-6-17-6-8 0-15 2-19 8l-55 66c-2 5-7 11-7 17 0 7 5 15 11 20l539 445c17 13 41 21 66 21 24 0 47-8 64-21l192-158v154c0 15 10 25 25 25h120c12 0 25-10 25-25v-294l177-147z" horiz-adv-x="1273" />

<glyph glyph-name="circle-arrow" unicode="&#xe859;" d="M467 785c249 0 452-202 452-452 0-249-203-452-452-452-250 0-452 203-452 452 0 250 202 452 452 452z m-53-262l137-131h-332c-26 0-44-20-44-44v-29c0-26 18-44 44-44h332l-137-133c-18-16-18-46-2-62l20-20c18-16 46-16 62 0l243 242c16 17 16 44 0 61l-243 242c-16 18-44 18-62 0l-20-20c-16-16-16-46 2-62z" horiz-adv-x="933" />

<glyph glyph-name="ship" unicode="&#xe85a;" d="M748-55c-30 0-64-13-82-37-44 47-124 51-165 0-43 47-123 52-164 0-22 24-101 65-109 12 0-14 11-25 25-25 17 0 32-7 44-19 20-24 57-23 78 0 21 24 58 26 82 4 21-26 60-30 83-4 21 24 58 26 82 4 19-24 53-30 77-9 13 14 29 25 49 24 32 0 33 50 0 50z m149 429c-27 20-53 10-92 19v108c0 58-46 104-103 104h-37v59c0 43-35 78-78 78h-62v75c0 13-11 25-25 25-14 0-25-12-25-25v-75h-62c-43 0-78-35-78-78v-59h-36c-58 0-104-46-105-104v-108c-26-3-48-6-65-7-36-3-56-51-31-78 63-69 104-155 118-248-31 0-106-24-81-65 9-10 25-12 35-4 28 26 70 26 98 0 25-24 64-24 89 0 28 26 71 26 98 0 12-11 28-18 45-18 17 0 33 7 45 18 27 26 70 26 97 0 25-24 65-24 90 0 27 26 70 26 98 0 10-8 26-7 35 4 24 41-50 64-81 65 14 93 55 179 118 248 16 20 14 49-5 66z m-512 290c0 15 12 28 28 28h174c16 0 28-13 28-28v-58h-230v58z m90-625c-45 33-111 27-152-11-6-5-6-5-10-5-10 1-30 22-47 28-3 33-9 66-19 97-22 70-59 134-109 188 117 9 231 38 337 87v-384z m13 447c-75-42-158-71-244-85v100c0 30 25 54 55 54h403c30 0 54-24 54-54v-100c-86 14-169 44-245 86-7 3-16 2-23-1z m246-435c-16-5-36-27-47-28-5 0-5 0-14 7-39 37-104 41-148 9v383c106-48 220-77 335-86-48-56-120-161-126-285z" horiz-adv-x="1000" />

<glyph glyph-name="train" unicode="&#xe85b;" d="M933 113h-5c19 33 36 99 36 232 0 244-59 263-77 263h-279v34c11 4 19 11 25 20 5 10 8 21 6 32-2 11-8 20-16 27-9 7-19 11-30 11h-186c-11 0-21-4-30-11-8-7-14-16-16-27-1-11 1-22 6-32 6-9 14-16 25-20v-34h-279c-18 0-77-19-77-263 0-133 17-199 37-232h-6c-8 0-16-3-22-9-6-6-9-14-9-22l0-46c0-21 8-41 22-55 15-15 35-23 55-23h2c3-17 13-33 27-44 13-12 31-18 49-18 17 0 35 6 48 18 14 11 24 27 27 44h34c4-17 13-33 27-44 14-12 31-18 49-18 18 0 35 6 49 18 14 11 24 27 27 44h96c4-17 13-33 27-44 14-12 31-18 49-18 18 0 35 6 49 18 14 11 23 27 27 44h34c3-17 13-33 27-44 13-12 31-18 49-18 17 0 35 6 49 18 13 11 23 27 26 44h2c20 0 40 8 55 23 14 14 22 34 22 55v46c0 8-3 16-9 22-6 6-13 9-22 9z m0 232c0-205-43-230-47-232h-30v16c0 20-8 40-23 54-14 15-34 23-54 23v371h107c4-1 47-26 47-232z m-340-232v464h155v-371c-21 0-41-8-55-23-15-14-23-34-23-54v-16h-77z m-263 0v16c0 20-8 40-23 54-14 15-34 23-55 23v371h155v-464h-77z m-78 62c13 0 25-5 33-14 9-8 14-20 14-32v-16h-124v16c0 12 5 24 14 32 8 9 20 14 32 14h31z m186 217h124v-78h-124v78z m124 31h-124v77h124v-77z m-124-140h124v-77h-124v77z m124 248h-124v46h124v-46z m-124-356h124v-62h-124v62z m263-46c0 12 5 24 14 32 9 9 20 14 33 14h31c12 0 24-5 32-14 9-8 14-20 14-32v-16h-124v16z m-294 572h186c4 0 8-1 11-4 3-3 4-7 4-11 0-4-1-8-4-11-3-3-7-5-11-5h-186c-4 0-8 2-11 5-3 3-4 7-4 11 0 4 1 8 4 11 3 3 7 4 11 4z m16-62h154v-31h-154v31z m-356-294c0 206 43 231 47 232h107v-371c-20 0-40-8-54-23-15-14-23-34-23-54v-16h-30c-4 2-47 27-47 232z m124-418c-9 0-17 3-25 7-7 4-13 11-17 18-4 8-6 16-5 25 1 8 3 17 8 24 5 7 12 12 20 15 8 4 16 5 25 4 8-1 16-5 23-10 6-6 11-13 14-21h-43c-5 0-9-1-11-4-3-3-5-7-5-11 0-4 2-8 5-11 2-3 6-5 11-5h43c-3-9-9-17-17-22-8-6-17-9-26-9z m185 0c-9 0-19 3-26 9-8 5-14 13-17 22h43c4 0 8 2 11 5 3 3 5 7 5 11 0 4-2 8-5 11-3 3-7 4-11 4h-43c3 8 8 15 14 21 7 5 15 9 23 10 8 1 17 0 25-4 8-3 14-9 19-16 5-7 8-15 9-23 0-9-2-17-6-25-3-7-9-14-17-18-7-4-15-7-24-7z m248 0c-9 0-17 3-24 7-8 4-14 11-17 18-4 8-6 16-6 25 1 8 4 17 9 24 5 7 11 12 19 15 8 4 17 5 25 4 8-1 16-5 23-10 7-6 12-13 14-21h-43c-4 0-8-1-11-4-3-3-5-7-5-11 0-4 2-8 5-11 3-3 7-5 11-5h43c-3-9-9-17-16-22-8-6-18-9-27-9z m186 0c-10 0-19 3-27 9-8 5-14 13-17 22h44c4 0 8 2 11 5 2 3 4 7 4 11 0 4-2 8-4 11-3 3-7 4-11 4h-44c3 8 8 15 14 21 7 5 15 9 23 10 9 1 17 0 25-4 8-3 15-9 20-16 4-7 7-15 8-23 0-9-1-17-5-25-4-7-10-14-17-18-8-4-16-7-24-7z m123 109c0-13-5-24-13-33-9-9-21-14-33-14h-2c-3 18-13 34-26 45-14 11-32 17-49 17-18 0-36-6-49-17-14-11-24-27-27-45h-34c-4 18-13 34-27 45-14 11-31 17-49 17-18 0-35-6-49-17-14-11-23-27-27-45h-96c-3 18-13 34-27 45-14 11-31 17-49 17-18 0-35-6-49-17-14-11-23-27-27-45h-34c-3 18-13 34-27 45-13 11-31 17-48 17-18 0-36-6-49-17-14-11-24-27-27-45h-2c-12 0-24 5-33 14-8 9-13 20-13 33v46h866v-46z" horiz-adv-x="1000" />

<glyph glyph-name="pintarest-1" unicode="&#xe85c;" d="M398 845c184 0 352-127 352-321 0-181-94-384-301-384-51 0-111 25-136 70-43-176-41-203-139-338-10-4-8-4-14 4-4 37-8 72-8 109 0 119 55 293 82 409-15 31-19 66-19 99 0 156 183 180 183 51 0-76-52-149-52-223 0-49 43-84 92-84 134 0 175 194 175 297 0 139-97 215-232 215-154 0-274-111-274-268 0-76 47-115 47-132 0-16-11-69-31-69-47 0-123 78-123 215 0 217 197 350 398 350z" horiz-adv-x="800" />

<glyph glyph-name="email-fill" unicode="&#xe85d;" d="M26 519c-10 8-26 0-26-13v-531c0-70 57-125 125-125h1083c71 0 125 55 125 125v531c0 13-13 21-23 13-60-47-135-104-401-297-55-39-149-125-242-125-91 0-188 86-240 125-265 193-341 250-401 297z m641-336c62-2 148 76 192 107 347 250 373 274 451 336 16 11 23 29 23 50v49c0 68-54 125-125 125h-1083c-68 0-125-57-125-125v-49c0-21 10-39 26-50 78-62 104-86 451-336 44-31 130-109 190-107z" horiz-adv-x="1333" />

<glyph glyph-name="map-fill" unicode="&#xe85e;" d="M320-108c-272 391-320 432-320 577 0 197 158 357 357 357 197 0 357-160 357-357 0-145-50-186-321-577-17-26-56-26-73 0z m37 428c82 0 149 65 149 149 0 82-67 149-149 149-84 0-149-67-149-149 0-84 65-149 149-149z" horiz-adv-x="714" />
</font>
</defs>
</svg>
